G04 #@! TF.FileFunction,Profile,NP*
%FSLAX46Y46*%
G04 Gerber Fmt 4.6, Leading zero omitted, Abs format (unit mm)*
G04 Created by KiCad (PCBNEW 4.0.2-stable) date 2016 October 13, Thursday 23:10:43*
%MOMM*%
G01*
G04 APERTURE LIST*
%ADD10C,0.100000*%
%ADD11C,0.050000*%
G04 APERTURE END LIST*
D10*
X370994521Y-109501100D02*
G75*
G02X370994543Y-112501100I10J-1500000D01*
G01*
X371894464Y-122801088D02*
G75*
G02X370994508Y-125501100I-899984J-1200012D01*
G01*
X370994480Y-122501100D02*
G75*
G02X372055126Y-122940426I0J-1500000D01*
G01*
X364994500Y-115001100D02*
G75*
G02X364994500Y-120001100I0J-2500000D01*
G01*
X364994500Y-120001100D02*
G75*
G02X364994500Y-115001100I0J2500000D01*
G01*
X24994500Y-102501100D02*
X44994500Y-102501100D01*
X24994500Y-132501100D02*
X44994500Y-132501100D01*
X24994500Y-102501100D02*
X24994500Y-132501100D01*
X374994500Y-113501077D02*
X374994500Y-102501100D01*
X397994500Y-115501100D02*
X376994517Y-115501100D01*
X374994500Y-121501108D02*
X374994500Y-132501100D01*
X376994520Y-119501100D02*
X397994500Y-119501100D01*
X374994500Y-121501100D02*
G75*
G02X376994500Y-119501100I2000000J0D01*
G01*
X376994500Y-115501100D02*
G75*
G02X374994500Y-113501100I0J2000000D01*
G01*
X397994500Y-119501100D02*
X397994500Y-115501100D01*
X370994492Y-125501100D02*
G75*
G02X370094500Y-122801100I8J1500000D01*
G01*
X369933840Y-122940440D02*
G75*
G02X370994480Y-122501100I1060660J-1060660D01*
G01*
X370994486Y-112501100D02*
G75*
G02X370994512Y-109501100I14J1500000D01*
G01*
X370994514Y-112501100D02*
G75*
G02X370994486Y-112501100I-14J1500000D01*
G01*
X364994500Y-132501100D02*
X374994500Y-132501100D01*
X364994500Y-102501100D02*
X374994500Y-102501100D01*
X324994500Y-132501100D02*
X364994500Y-132501100D01*
X324994500Y-102501100D02*
X364994500Y-102501100D01*
X284994500Y-132501100D02*
X324994500Y-132501100D01*
X284994500Y-102501100D02*
X324994500Y-102501100D01*
X244994500Y-132501100D02*
X284994500Y-132501100D01*
X244994500Y-102501100D02*
X284994500Y-102501100D01*
X204994500Y-132501100D02*
X244994500Y-132501100D01*
X204994500Y-102501100D02*
X244994500Y-102501100D01*
X164994500Y-132501100D02*
X204994500Y-132501100D01*
X164994500Y-102501100D02*
X204994500Y-102501100D01*
X124994500Y-132501100D02*
X164994500Y-132501100D01*
X124994500Y-102501100D02*
X164994500Y-102501100D01*
X84994500Y-132501100D02*
X124994500Y-132501100D01*
X84994500Y-102501100D02*
X124994500Y-102501100D01*
X44994500Y-132501100D02*
X84994500Y-132501100D01*
X44994500Y-102501100D02*
X84994500Y-102501100D01*
X324994500Y-115001100D02*
G75*
G02X324994500Y-120001100I0J-2500000D01*
G01*
X324994500Y-120001100D02*
G75*
G02X324994500Y-115001100I0J2500000D01*
G01*
X284994500Y-115001100D02*
G75*
G02X284994500Y-120001100I0J-2500000D01*
G01*
X284994500Y-120001100D02*
G75*
G02X284994500Y-115001100I0J2500000D01*
G01*
X244994500Y-115001100D02*
G75*
G02X244994500Y-120001100I0J-2500000D01*
G01*
X244994500Y-120001100D02*
G75*
G02X244994500Y-115001100I0J2500000D01*
G01*
X204994500Y-115001100D02*
G75*
G02X204994500Y-120001100I0J-2500000D01*
G01*
X204994500Y-120001100D02*
G75*
G02X204994500Y-115001100I0J2500000D01*
G01*
X164994500Y-115001100D02*
G75*
G02X164994500Y-120001100I0J-2500000D01*
G01*
X164994500Y-120001100D02*
G75*
G02X164994500Y-115001100I0J2500000D01*
G01*
X124994500Y-115001100D02*
G75*
G02X124994500Y-120001100I0J-2500000D01*
G01*
X124994500Y-120001100D02*
G75*
G02X124994500Y-115001100I0J2500000D01*
G01*
X84994500Y-115001100D02*
G75*
G02X84994500Y-120001100I0J-2500000D01*
G01*
X84994500Y-120001100D02*
G75*
G02X84994500Y-115001100I0J2500000D01*
G01*
X44994500Y-115001100D02*
G75*
G02X44994500Y-120001100I0J-2500000D01*
G01*
X44994500Y-120001100D02*
G75*
G02X44994500Y-115001100I0J2500000D01*
G01*
X364994500Y-132501100D02*
X374994500Y-132501100D01*
X364994500Y-102501100D02*
X374994500Y-102501100D01*
X324994500Y-132501100D02*
X364994500Y-132501100D01*
X324994500Y-102501100D02*
X364994500Y-102501100D01*
X284994500Y-132501100D02*
X324994500Y-132501100D01*
X284994500Y-102501100D02*
X324994500Y-102501100D01*
X244994500Y-132501100D02*
X284994500Y-132501100D01*
X244994500Y-102501100D02*
X284994500Y-102501100D01*
X204994500Y-132501100D02*
X244994500Y-132501100D01*
X204994500Y-102501100D02*
X244994500Y-102501100D01*
X164994500Y-132501100D02*
X204994500Y-132501100D01*
X164994500Y-102501100D02*
X204994500Y-102501100D01*
X124994500Y-132501100D02*
X164994500Y-132501100D01*
X124994500Y-102501100D02*
X164994500Y-102501100D01*
X84994500Y-132501100D02*
X124994500Y-132501100D01*
X84994500Y-102501100D02*
X124994500Y-102501100D01*
X44994500Y-132501100D02*
X84994500Y-132501100D01*
X44994500Y-102501100D02*
X84994500Y-102501100D01*
D11*
X396000000Y-115500000D02*
X398000000Y-115500000D01*
X398000000Y-115500000D02*
X398000000Y-119500000D01*
X398000000Y-119500000D02*
X396000000Y-119500000D01*
M02*
