M48
;DRILL file {KiCad 4.0.2-stable} date 2016 October 13, Thursday 23:16:30
;FORMAT={-:-/ absolute / metric / decimal}
FMAT,2
METRIC,TZ
T1C0.200
T2C0.400
T3C0.762
%
G90
G05
M71
T1
X72.95Y-105.625
X112.95Y-105.625
X152.95Y-105.625
X192.95Y-105.625
X232.95Y-105.625
X272.95Y-105.625
X312.95Y-105.625
X352.95Y-105.625
T2
X46.Y-123.75
X52.07Y-118.11
X59.5Y-128.
X71.Y-123.75
X80.01Y-103.632
X91.948Y-117.856
X98.75Y-128.
X111.25Y-122.75
X119.634Y-103.886
X132.334Y-117.856
X138.5Y-128.
X153.Y-122.
X160.528Y-103.632
X171.958Y-117.856
X178.Y-128.
X192.5Y-121.
X200.406Y-103.632
X212.09Y-117.856
X218.Y-128.
X231.75Y-125.
X241.808Y-103.632
X252.222Y-118.11
X258.Y-128.
X271.75Y-125.75
X280.67Y-103.886
X292.1Y-117.856
X298.Y-128.
X312.5Y-121.25
X313.25Y-119.75
X316.5Y-122.
X318.5Y-123.
X320.25Y-124.
X320.294Y-103.886
X326.25Y-124.75
X327.5Y-125.75
X329.438Y-119.634
X331.Y-104.25
X337.25Y-108.
X338.Y-128.
X338.25Y-113.
X342.75Y-114.75
X353.75Y-116.25
X360.934Y-121.412
X371.5Y-115.75
X373.5Y-107.75
X373.75Y-115.75
T3
X36.Y-115.25
X36.Y-119.75
X38.25Y-115.25
X38.25Y-117.5
X38.25Y-119.75
X356.Y-115.25
X356.Y-119.75
X358.25Y-115.25
X358.25Y-117.5
X358.25Y-119.75
T0
M30
