G04 #@! TF.FileFunction,Paste,Top*
%FSLAX46Y46*%
G04 Gerber Fmt 4.6, Leading zero omitted, Abs format (unit mm)*
G04 Created by KiCad (PCBNEW 4.0.2-stable) date 2016 October 13, Thursday 23:10:42*
%MOMM*%
G01*
G04 APERTURE LIST*
%ADD10C,0.100000*%
%ADD11R,4.000000X8.000000*%
%ADD12R,0.800100X0.800100*%
%ADD13R,0.900000X1.200000*%
%ADD14R,1.143000X0.508000*%
%ADD15R,0.750000X1.200000*%
%ADD16R,2.000000X0.300000*%
%ADD17C,0.075000*%
G04 APERTURE END LIST*
D10*
D11*
X132000000Y-123000000D03*
X138000000Y-123000000D03*
X172000000Y-123000000D03*
X178000000Y-123000000D03*
X212000000Y-123000000D03*
X218000000Y-123000000D03*
X252000000Y-123000000D03*
X258000000Y-123000000D03*
X92000000Y-123000000D03*
X98000000Y-123000000D03*
X52000000Y-123000000D03*
X58000000Y-123000000D03*
D12*
X71000760Y-115950000D03*
X71000760Y-114050000D03*
X69001780Y-115000000D03*
D13*
X71000000Y-118900000D03*
X71000000Y-121100000D03*
D14*
X338302000Y-111810000D03*
X338302000Y-110540000D03*
X338302000Y-109270000D03*
X338302000Y-108000000D03*
X338302000Y-106730000D03*
X338302000Y-105460000D03*
X338302000Y-104190000D03*
X331952000Y-104190000D03*
X331952000Y-105460000D03*
X331952000Y-108000000D03*
X331952000Y-109270000D03*
X331952000Y-110540000D03*
X331952000Y-111810000D03*
X331952000Y-106730000D03*
D12*
X111000760Y-115950000D03*
X111000760Y-114050000D03*
X109001780Y-115000000D03*
X151000760Y-115950000D03*
X151000760Y-114050000D03*
X149001780Y-115000000D03*
X191000760Y-115950000D03*
X191000760Y-114050000D03*
X189001780Y-115000000D03*
X231000760Y-115950000D03*
X231000760Y-114050000D03*
X229001780Y-115000000D03*
X271000760Y-115950000D03*
X271000760Y-114050000D03*
X269001780Y-115000000D03*
X311000760Y-115950000D03*
X311000760Y-114050000D03*
X309001780Y-115000000D03*
X351000760Y-115950000D03*
X351000760Y-114050000D03*
X349001780Y-115000000D03*
D13*
X111000000Y-118900000D03*
X111000000Y-121100000D03*
X151000000Y-118900000D03*
X151000000Y-121100000D03*
X191000000Y-118900000D03*
X191000000Y-121100000D03*
X231000000Y-118900000D03*
X231000000Y-121100000D03*
X271000000Y-118900000D03*
X271000000Y-121100000D03*
X311000000Y-118900000D03*
X311000000Y-121100000D03*
X351000000Y-118900000D03*
X351000000Y-121100000D03*
D15*
X343000000Y-104300000D03*
X343000000Y-106200000D03*
D16*
X397000000Y-119250000D03*
X397000000Y-118750000D03*
X397000000Y-118250000D03*
X397000000Y-117750000D03*
X397000000Y-117250000D03*
X397000000Y-116750000D03*
X397000000Y-116250000D03*
X397000000Y-115750000D03*
D11*
X292000000Y-123000000D03*
X298000000Y-123000000D03*
X332000000Y-123000000D03*
X338000000Y-123000000D03*
D17*
X350936000Y-103832000D03*
X350936000Y-111198000D03*
X310936000Y-103832000D03*
X310936000Y-111198000D03*
X270936000Y-103832000D03*
X270936000Y-111198000D03*
X230936000Y-103832000D03*
X230936000Y-111198000D03*
X190936000Y-103832000D03*
X190936000Y-111198000D03*
X110936000Y-103832000D03*
X110936000Y-111198000D03*
X150936000Y-103832000D03*
X150936000Y-111198000D03*
X70936000Y-103832000D03*
X70936000Y-111198000D03*
M02*
