G04 #@! TF.FileFunction,Copper,L2,Bot,Signal*
%FSLAX46Y46*%
G04 Gerber Fmt 4.6, Leading zero omitted, Abs format (unit mm)*
G04 Created by KiCad (PCBNEW 4.0.2-stable) date 2016 October 13, Thursday 23:14:49*
%MOMM*%
G01*
G04 APERTURE LIST*
%ADD10C,0.100000*%
%ADD11C,0.150000*%
%ADD12C,0.300000*%
%ADD13C,0.400000*%
%ADD14O,1.050000X1.800000*%
%ADD15C,1.524000*%
%ADD16R,1.727200X1.727200*%
%ADD17O,1.727200X1.727200*%
%ADD18R,5.600700X2.100580*%
%ADD19C,0.600000*%
%ADD20C,0.250000*%
G04 APERTURE END LIST*
D10*
D11*
X177002200Y-166007200D02*
X177002200Y-198007200D01*
X285002200Y-198007200D01*
X285002200Y-166007200D01*
X177002200Y-166007200D01*
D10*
D11*
X10000000Y-10000000D02*
X10000000Y-200007200D01*
X287002200Y-200007200D01*
X287002200Y-10000000D01*
X10000000Y-10000000D01*
D10*
D11*
X12000000Y-12000000D02*
X12000000Y-198007200D01*
X285002200Y-198007200D01*
X285002200Y-12000000D01*
X12000000Y-12000000D01*
D10*
D11*
X60000000Y-12000000D02*
X60000000Y-10000000D01*
D10*
D11*
X110000000Y-12000000D02*
X110000000Y-10000000D01*
D10*
D11*
X160000000Y-12000000D02*
X160000000Y-10000000D01*
D10*
D11*
X210000000Y-12000000D02*
X210000000Y-10000000D01*
D10*
D11*
X260000000Y-12000000D02*
X260000000Y-10000000D01*
D10*
D11*
X35990476Y-11588095D02*
X35247619Y-11588095D01*
X35619048Y-11588095D02*
X35619048Y-10288095D01*
X35495238Y-10473810D01*
X35371429Y-10597619D01*
X35247619Y-10659524D01*
D10*
D11*
X85247619Y-10411905D02*
X85309524Y-10350000D01*
X85433333Y-10288095D01*
X85742857Y-10288095D01*
X85866667Y-10350000D01*
X85928571Y-10411905D01*
X85990476Y-10535714D01*
X85990476Y-10659524D01*
X85928571Y-10845238D01*
X85185714Y-11588095D01*
X85990476Y-11588095D01*
D10*
D11*
X135185714Y-10288095D02*
X135990476Y-10288095D01*
X135557143Y-10783333D01*
X135742857Y-10783333D01*
X135866667Y-10845238D01*
X135928571Y-10907143D01*
X135990476Y-11030952D01*
X135990476Y-11340476D01*
X135928571Y-11464286D01*
X135866667Y-11526190D01*
X135742857Y-11588095D01*
X135371429Y-11588095D01*
X135247619Y-11526190D01*
X135185714Y-11464286D01*
D10*
D11*
X185866667Y-10721429D02*
X185866667Y-11588095D01*
X185557143Y-10226190D02*
X185247619Y-11154762D01*
X186052381Y-11154762D01*
D10*
D11*
X235928571Y-10288095D02*
X235309524Y-10288095D01*
X235247619Y-10907143D01*
X235309524Y-10845238D01*
X235433333Y-10783333D01*
X235742857Y-10783333D01*
X235866667Y-10845238D01*
X235928571Y-10907143D01*
X235990476Y-11030952D01*
X235990476Y-11340476D01*
X235928571Y-11464286D01*
X235866667Y-11526190D01*
X235742857Y-11588095D01*
X235433333Y-11588095D01*
X235309524Y-11526190D01*
X235247619Y-11464286D01*
D10*
D11*
X285866667Y-10288095D02*
X285619048Y-10288095D01*
X285495238Y-10350000D01*
X285433333Y-10411905D01*
X285309524Y-10597619D01*
X285247619Y-10845238D01*
X285247619Y-11340476D01*
X285309524Y-11464286D01*
X285371429Y-11526190D01*
X285495238Y-11588095D01*
X285742857Y-11588095D01*
X285866667Y-11526190D01*
X285928571Y-11464286D01*
X285990476Y-11340476D01*
X285990476Y-11030952D01*
X285928571Y-10907143D01*
X285866667Y-10845238D01*
X285742857Y-10783333D01*
X285495238Y-10783333D01*
X285371429Y-10845238D01*
X285309524Y-10907143D01*
X285247619Y-11030952D01*
D10*
D11*
X60000000Y-198007200D02*
X60000000Y-200007200D01*
D10*
D11*
X110000000Y-198007200D02*
X110000000Y-200007200D01*
D10*
D11*
X160000000Y-198007200D02*
X160000000Y-200007200D01*
D10*
D11*
X210000000Y-198007200D02*
X210000000Y-200007200D01*
D10*
D11*
X260000000Y-198007200D02*
X260000000Y-200007200D01*
D10*
D11*
X35990476Y-199595295D02*
X35247619Y-199595295D01*
X35619048Y-199595295D02*
X35619048Y-198295295D01*
X35495238Y-198481010D01*
X35371429Y-198604819D01*
X35247619Y-198666724D01*
D10*
D11*
X85247619Y-198419105D02*
X85309524Y-198357200D01*
X85433333Y-198295295D01*
X85742857Y-198295295D01*
X85866667Y-198357200D01*
X85928571Y-198419105D01*
X85990476Y-198542914D01*
X85990476Y-198666724D01*
X85928571Y-198852438D01*
X85185714Y-199595295D01*
X85990476Y-199595295D01*
D10*
D11*
X135185714Y-198295295D02*
X135990476Y-198295295D01*
X135557143Y-198790533D01*
X135742857Y-198790533D01*
X135866667Y-198852438D01*
X135928571Y-198914343D01*
X135990476Y-199038152D01*
X135990476Y-199347676D01*
X135928571Y-199471486D01*
X135866667Y-199533390D01*
X135742857Y-199595295D01*
X135371429Y-199595295D01*
X135247619Y-199533390D01*
X135185714Y-199471486D01*
D10*
D11*
X185866667Y-198728629D02*
X185866667Y-199595295D01*
X185557143Y-198233390D02*
X185247619Y-199161962D01*
X186052381Y-199161962D01*
D10*
D11*
X235928571Y-198295295D02*
X235309524Y-198295295D01*
X235247619Y-198914343D01*
X235309524Y-198852438D01*
X235433333Y-198790533D01*
X235742857Y-198790533D01*
X235866667Y-198852438D01*
X235928571Y-198914343D01*
X235990476Y-199038152D01*
X235990476Y-199347676D01*
X235928571Y-199471486D01*
X235866667Y-199533390D01*
X235742857Y-199595295D01*
X235433333Y-199595295D01*
X235309524Y-199533390D01*
X235247619Y-199471486D01*
D10*
D11*
X285866667Y-198295295D02*
X285619048Y-198295295D01*
X285495238Y-198357200D01*
X285433333Y-198419105D01*
X285309524Y-198604819D01*
X285247619Y-198852438D01*
X285247619Y-199347676D01*
X285309524Y-199471486D01*
X285371429Y-199533390D01*
X285495238Y-199595295D01*
X285742857Y-199595295D01*
X285866667Y-199533390D01*
X285928571Y-199471486D01*
X285990476Y-199347676D01*
X285990476Y-199038152D01*
X285928571Y-198914343D01*
X285866667Y-198852438D01*
X285742857Y-198790533D01*
X285495238Y-198790533D01*
X285371429Y-198852438D01*
X285309524Y-198914343D01*
X285247619Y-199038152D01*
D10*
D11*
X10000000Y-60000000D02*
X12000000Y-60000000D01*
D10*
D11*
X10000000Y-110000000D02*
X12000000Y-110000000D01*
D10*
D11*
X10000000Y-160000000D02*
X12000000Y-160000000D01*
D10*
D11*
X10690476Y-35216667D02*
X11309524Y-35216667D01*
X10566667Y-35588095D02*
X11000000Y-34288095D01*
X11433333Y-35588095D01*
D10*
D11*
X11092857Y-84907143D02*
X11278571Y-84969048D01*
X11340476Y-85030952D01*
X11402381Y-85154762D01*
X11402381Y-85340476D01*
X11340476Y-85464286D01*
X11278571Y-85526190D01*
X11154762Y-85588095D01*
X10659524Y-85588095D01*
X10659524Y-84288095D01*
X11092857Y-84288095D01*
X11216667Y-84350000D01*
X11278571Y-84411905D01*
X11340476Y-84535714D01*
X11340476Y-84659524D01*
X11278571Y-84783333D01*
X11216667Y-84845238D01*
X11092857Y-84907143D01*
X10659524Y-84907143D01*
D10*
D11*
X11402381Y-135464286D02*
X11340476Y-135526190D01*
X11154762Y-135588095D01*
X11030952Y-135588095D01*
X10845238Y-135526190D01*
X10721429Y-135402381D01*
X10659524Y-135278571D01*
X10597619Y-135030952D01*
X10597619Y-134845238D01*
X10659524Y-134597619D01*
X10721429Y-134473810D01*
X10845238Y-134350000D01*
X11030952Y-134288095D01*
X11154762Y-134288095D01*
X11340476Y-134350000D01*
X11402381Y-134411905D01*
D10*
D11*
X10659524Y-185588095D02*
X10659524Y-184288095D01*
X10969048Y-184288095D01*
X11154762Y-184350000D01*
X11278571Y-184473810D01*
X11340476Y-184597619D01*
X11402381Y-184845238D01*
X11402381Y-185030952D01*
X11340476Y-185278571D01*
X11278571Y-185402381D01*
X11154762Y-185526190D01*
X10969048Y-185588095D01*
X10659524Y-185588095D01*
D10*
D11*
X287002200Y-60000000D02*
X285002200Y-60000000D01*
D10*
D11*
X287002200Y-110000000D02*
X285002200Y-110000000D01*
D10*
D11*
X287002200Y-160000000D02*
X285002200Y-160000000D01*
D10*
D11*
X285692676Y-35216667D02*
X286311724Y-35216667D01*
X285568867Y-35588095D02*
X286002200Y-34288095D01*
X286435533Y-35588095D01*
D10*
D11*
X286095057Y-84907143D02*
X286280771Y-84969048D01*
X286342676Y-85030952D01*
X286404581Y-85154762D01*
X286404581Y-85340476D01*
X286342676Y-85464286D01*
X286280771Y-85526190D01*
X286156962Y-85588095D01*
X285661724Y-85588095D01*
X285661724Y-84288095D01*
X286095057Y-84288095D01*
X286218867Y-84350000D01*
X286280771Y-84411905D01*
X286342676Y-84535714D01*
X286342676Y-84659524D01*
X286280771Y-84783333D01*
X286218867Y-84845238D01*
X286095057Y-84907143D01*
X285661724Y-84907143D01*
D10*
D11*
X286404581Y-135464286D02*
X286342676Y-135526190D01*
X286156962Y-135588095D01*
X286033152Y-135588095D01*
X285847438Y-135526190D01*
X285723629Y-135402381D01*
X285661724Y-135278571D01*
X285599819Y-135030952D01*
X285599819Y-134845238D01*
X285661724Y-134597619D01*
X285723629Y-134473810D01*
X285847438Y-134350000D01*
X286033152Y-134288095D01*
X286156962Y-134288095D01*
X286342676Y-134350000D01*
X286404581Y-134411905D01*
D10*
D11*
X285661724Y-185588095D02*
X285661724Y-184288095D01*
X285971248Y-184288095D01*
X286156962Y-184350000D01*
X286280771Y-184473810D01*
X286342676Y-184597619D01*
X286404581Y-184845238D01*
X286404581Y-185030952D01*
X286342676Y-185278571D01*
X286280771Y-185402381D01*
X286156962Y-185526190D01*
X285971248Y-185588095D01*
X285661724Y-185588095D01*
D10*
D11*
X200359343Y-193785771D02*
X200359343Y-192285771D01*
X200716486Y-192285771D01*
X200930771Y-192357200D01*
X201073629Y-192500057D01*
X201145057Y-192642914D01*
X201216486Y-192928629D01*
X201216486Y-193142914D01*
X201145057Y-193428629D01*
X201073629Y-193571486D01*
X200930771Y-193714343D01*
X200716486Y-193785771D01*
X200359343Y-193785771D01*
X202502200Y-193785771D02*
X202502200Y-193000057D01*
X202430771Y-192857200D01*
X202287914Y-192785771D01*
X202002200Y-192785771D01*
X201859343Y-192857200D01*
X202502200Y-193714343D02*
X202359343Y-193785771D01*
X202002200Y-193785771D01*
X201859343Y-193714343D01*
X201787914Y-193571486D01*
X201787914Y-193428629D01*
X201859343Y-193285771D01*
X202002200Y-193214343D01*
X202359343Y-193214343D01*
X202502200Y-193142914D01*
X203002200Y-192785771D02*
X203573629Y-192785771D01*
X203216486Y-192285771D02*
X203216486Y-193571486D01*
X203287914Y-193714343D01*
X203430772Y-193785771D01*
X203573629Y-193785771D01*
X204645057Y-193714343D02*
X204502200Y-193785771D01*
X204216486Y-193785771D01*
X204073629Y-193714343D01*
X204002200Y-193571486D01*
X204002200Y-193000057D01*
X204073629Y-192857200D01*
X204216486Y-192785771D01*
X204502200Y-192785771D01*
X204645057Y-192857200D01*
X204716486Y-193000057D01*
X204716486Y-193142914D01*
X204002200Y-193285771D01*
X205359343Y-193642914D02*
X205430771Y-193714343D01*
X205359343Y-193785771D01*
X205287914Y-193714343D01*
X205359343Y-193642914D01*
X205359343Y-193785771D01*
X205359343Y-192857200D02*
X205430771Y-192928629D01*
X205359343Y-193000057D01*
X205287914Y-192928629D01*
X205359343Y-192857200D01*
X205359343Y-193000057D01*
D10*
D11*
X177002200Y-194507200D02*
X285002200Y-194507200D01*
D10*
D11*
X178359343Y-196585771D02*
X178359343Y-195085771D01*
X179216486Y-196585771D02*
X178573629Y-195728629D01*
X179216486Y-195085771D02*
X178359343Y-195942914D01*
X179859343Y-196585771D02*
X179859343Y-195585771D01*
X179859343Y-195085771D02*
X179787914Y-195157200D01*
X179859343Y-195228629D01*
X179930771Y-195157200D01*
X179859343Y-195085771D01*
X179859343Y-195228629D01*
X181430772Y-196442914D02*
X181359343Y-196514343D01*
X181145057Y-196585771D01*
X181002200Y-196585771D01*
X180787915Y-196514343D01*
X180645057Y-196371486D01*
X180573629Y-196228629D01*
X180502200Y-195942914D01*
X180502200Y-195728629D01*
X180573629Y-195442914D01*
X180645057Y-195300057D01*
X180787915Y-195157200D01*
X181002200Y-195085771D01*
X181145057Y-195085771D01*
X181359343Y-195157200D01*
X181430772Y-195228629D01*
X182716486Y-196585771D02*
X182716486Y-195800057D01*
X182645057Y-195657200D01*
X182502200Y-195585771D01*
X182216486Y-195585771D01*
X182073629Y-195657200D01*
X182716486Y-196514343D02*
X182573629Y-196585771D01*
X182216486Y-196585771D01*
X182073629Y-196514343D01*
X182002200Y-196371486D01*
X182002200Y-196228629D01*
X182073629Y-196085771D01*
X182216486Y-196014343D01*
X182573629Y-196014343D01*
X182716486Y-195942914D01*
X184073629Y-196585771D02*
X184073629Y-195085771D01*
X184073629Y-196514343D02*
X183930772Y-196585771D01*
X183645058Y-196585771D01*
X183502200Y-196514343D01*
X183430772Y-196442914D01*
X183359343Y-196300057D01*
X183359343Y-195871486D01*
X183430772Y-195728629D01*
X183502200Y-195657200D01*
X183645058Y-195585771D01*
X183930772Y-195585771D01*
X184073629Y-195657200D01*
X185930772Y-195800057D02*
X186430772Y-195800057D01*
X186645058Y-196585771D02*
X185930772Y-196585771D01*
X185930772Y-195085771D01*
X186645058Y-195085771D01*
X187287915Y-196442914D02*
X187359343Y-196514343D01*
X187287915Y-196585771D01*
X187216486Y-196514343D01*
X187287915Y-196442914D01*
X187287915Y-196585771D01*
X188002201Y-196585771D02*
X188002201Y-195085771D01*
X188359344Y-195085771D01*
X188573629Y-195157200D01*
X188716487Y-195300057D01*
X188787915Y-195442914D01*
X188859344Y-195728629D01*
X188859344Y-195942914D01*
X188787915Y-196228629D01*
X188716487Y-196371486D01*
X188573629Y-196514343D01*
X188359344Y-196585771D01*
X188002201Y-196585771D01*
X189502201Y-196442914D02*
X189573629Y-196514343D01*
X189502201Y-196585771D01*
X189430772Y-196514343D01*
X189502201Y-196442914D01*
X189502201Y-196585771D01*
X190145058Y-196157200D02*
X190859344Y-196157200D01*
X190002201Y-196585771D02*
X190502201Y-195085771D01*
X191002201Y-196585771D01*
X191502201Y-196442914D02*
X191573629Y-196514343D01*
X191502201Y-196585771D01*
X191430772Y-196514343D01*
X191502201Y-196442914D01*
X191502201Y-196585771D01*
X194502201Y-196585771D02*
X194502201Y-195085771D01*
X194645058Y-196014343D02*
X195073629Y-196585771D01*
X195073629Y-195585771D02*
X194502201Y-196157200D01*
X195716487Y-196585771D02*
X195716487Y-195585771D01*
X195716487Y-195085771D02*
X195645058Y-195157200D01*
X195716487Y-195228629D01*
X195787915Y-195157200D01*
X195716487Y-195085771D01*
X195716487Y-195228629D01*
X197073630Y-196514343D02*
X196930773Y-196585771D01*
X196645059Y-196585771D01*
X196502201Y-196514343D01*
X196430773Y-196442914D01*
X196359344Y-196300057D01*
X196359344Y-195871486D01*
X196430773Y-195728629D01*
X196502201Y-195657200D01*
X196645059Y-195585771D01*
X196930773Y-195585771D01*
X197073630Y-195657200D01*
X198359344Y-196585771D02*
X198359344Y-195800057D01*
X198287915Y-195657200D01*
X198145058Y-195585771D01*
X197859344Y-195585771D01*
X197716487Y-195657200D01*
X198359344Y-196514343D02*
X198216487Y-196585771D01*
X197859344Y-196585771D01*
X197716487Y-196514343D01*
X197645058Y-196371486D01*
X197645058Y-196228629D01*
X197716487Y-196085771D01*
X197859344Y-196014343D01*
X198216487Y-196014343D01*
X198359344Y-195942914D01*
X199716487Y-196585771D02*
X199716487Y-195085771D01*
X199716487Y-196514343D02*
X199573630Y-196585771D01*
X199287916Y-196585771D01*
X199145058Y-196514343D01*
X199073630Y-196442914D01*
X199002201Y-196300057D01*
X199002201Y-195871486D01*
X199073630Y-195728629D01*
X199145058Y-195657200D01*
X199287916Y-195585771D01*
X199573630Y-195585771D01*
X199716487Y-195657200D01*
X202216487Y-195585771D02*
X202216487Y-196585771D01*
X201859344Y-195014343D02*
X201502201Y-196085771D01*
X202430773Y-196085771D01*
X203002201Y-196442914D02*
X203073629Y-196514343D01*
X203002201Y-196585771D01*
X202930772Y-196514343D01*
X203002201Y-196442914D01*
X203002201Y-196585771D01*
X204002201Y-195085771D02*
X204145058Y-195085771D01*
X204287915Y-195157200D01*
X204359344Y-195228629D01*
X204430773Y-195371486D01*
X204502201Y-195657200D01*
X204502201Y-196014343D01*
X204430773Y-196300057D01*
X204359344Y-196442914D01*
X204287915Y-196514343D01*
X204145058Y-196585771D01*
X204002201Y-196585771D01*
X203859344Y-196514343D01*
X203787915Y-196442914D01*
X203716487Y-196300057D01*
X203645058Y-196014343D01*
X203645058Y-195657200D01*
X203716487Y-195371486D01*
X203787915Y-195228629D01*
X203859344Y-195157200D01*
X204002201Y-195085771D01*
X205145058Y-196442914D02*
X205216486Y-196514343D01*
X205145058Y-196585771D01*
X205073629Y-196514343D01*
X205145058Y-196442914D01*
X205145058Y-196585771D01*
X205787915Y-195228629D02*
X205859344Y-195157200D01*
X206002201Y-195085771D01*
X206359344Y-195085771D01*
X206502201Y-195157200D01*
X206573630Y-195228629D01*
X206645058Y-195371486D01*
X206645058Y-195514343D01*
X206573630Y-195728629D01*
X205716487Y-196585771D01*
X206645058Y-196585771D01*
X207287915Y-196014343D02*
X208430772Y-196014343D01*
X209073629Y-196514343D02*
X209216486Y-196585771D01*
X209502201Y-196585771D01*
X209645058Y-196514343D01*
X209716486Y-196371486D01*
X209716486Y-196300057D01*
X209645058Y-196157200D01*
X209502201Y-196085771D01*
X209287915Y-196085771D01*
X209145058Y-196014343D01*
X209073629Y-195871486D01*
X209073629Y-195800057D01*
X209145058Y-195657200D01*
X209287915Y-195585771D01*
X209502201Y-195585771D01*
X209645058Y-195657200D01*
X210145058Y-195585771D02*
X210716487Y-195585771D01*
X210359344Y-195085771D02*
X210359344Y-196371486D01*
X210430772Y-196514343D01*
X210573630Y-196585771D01*
X210716487Y-196585771D01*
X211859344Y-196585771D02*
X211859344Y-195800057D01*
X211787915Y-195657200D01*
X211645058Y-195585771D01*
X211359344Y-195585771D01*
X211216487Y-195657200D01*
X211859344Y-196514343D02*
X211716487Y-196585771D01*
X211359344Y-196585771D01*
X211216487Y-196514343D01*
X211145058Y-196371486D01*
X211145058Y-196228629D01*
X211216487Y-196085771D01*
X211359344Y-196014343D01*
X211716487Y-196014343D01*
X211859344Y-195942914D01*
X212573630Y-196585771D02*
X212573630Y-195085771D01*
X212573630Y-195657200D02*
X212716487Y-195585771D01*
X213002201Y-195585771D01*
X213145058Y-195657200D01*
X213216487Y-195728629D01*
X213287916Y-195871486D01*
X213287916Y-196300057D01*
X213216487Y-196442914D01*
X213145058Y-196514343D01*
X213002201Y-196585771D01*
X212716487Y-196585771D01*
X212573630Y-196514343D01*
X214145059Y-196585771D02*
X214002201Y-196514343D01*
X213930773Y-196371486D01*
X213930773Y-195085771D01*
X215287915Y-196514343D02*
X215145058Y-196585771D01*
X214859344Y-196585771D01*
X214716487Y-196514343D01*
X214645058Y-196371486D01*
X214645058Y-195800057D01*
X214716487Y-195657200D01*
X214859344Y-195585771D01*
X215145058Y-195585771D01*
X215287915Y-195657200D01*
X215359344Y-195800057D01*
X215359344Y-195942914D01*
X214645058Y-196085771D01*
D10*
D11*
X177002200Y-191507200D02*
X285002200Y-191507200D01*
D10*
D12*
X264216486Y-193785771D02*
X263716486Y-193071486D01*
X263359343Y-193785771D02*
X263359343Y-192285771D01*
X263930771Y-192285771D01*
X264073629Y-192357200D01*
X264145057Y-192428629D01*
X264216486Y-192571486D01*
X264216486Y-192785771D01*
X264145057Y-192928629D01*
X264073629Y-193000057D01*
X263930771Y-193071486D01*
X263359343Y-193071486D01*
X265430771Y-193714343D02*
X265287914Y-193785771D01*
X265002200Y-193785771D01*
X264859343Y-193714343D01*
X264787914Y-193571486D01*
X264787914Y-193000057D01*
X264859343Y-192857200D01*
X265002200Y-192785771D01*
X265287914Y-192785771D01*
X265430771Y-192857200D01*
X265502200Y-193000057D01*
X265502200Y-193142914D01*
X264787914Y-193285771D01*
X266002200Y-192785771D02*
X266359343Y-193785771D01*
X266716485Y-192785771D01*
X267287914Y-193642914D02*
X267359342Y-193714343D01*
X267287914Y-193785771D01*
X267216485Y-193714343D01*
X267287914Y-193642914D01*
X267287914Y-193785771D01*
X267287914Y-192857200D02*
X267359342Y-192928629D01*
X267287914Y-193000057D01*
X267216485Y-192928629D01*
X267287914Y-192857200D01*
X267287914Y-193000057D01*
D10*
D11*
X178287914Y-193714343D02*
X178502200Y-193785771D01*
X178859343Y-193785771D01*
X179002200Y-193714343D01*
X179073629Y-193642914D01*
X179145057Y-193500057D01*
X179145057Y-193357200D01*
X179073629Y-193214343D01*
X179002200Y-193142914D01*
X178859343Y-193071486D01*
X178573629Y-193000057D01*
X178430771Y-192928629D01*
X178359343Y-192857200D01*
X178287914Y-192714343D01*
X178287914Y-192571486D01*
X178359343Y-192428629D01*
X178430771Y-192357200D01*
X178573629Y-192285771D01*
X178930771Y-192285771D01*
X179145057Y-192357200D01*
X179787914Y-193785771D02*
X179787914Y-192785771D01*
X179787914Y-192285771D02*
X179716485Y-192357200D01*
X179787914Y-192428629D01*
X179859342Y-192357200D01*
X179787914Y-192285771D01*
X179787914Y-192428629D01*
X180359343Y-192785771D02*
X181145057Y-192785771D01*
X180359343Y-193785771D01*
X181145057Y-193785771D01*
X182287914Y-193714343D02*
X182145057Y-193785771D01*
X181859343Y-193785771D01*
X181716486Y-193714343D01*
X181645057Y-193571486D01*
X181645057Y-193000057D01*
X181716486Y-192857200D01*
X181859343Y-192785771D01*
X182145057Y-192785771D01*
X182287914Y-192857200D01*
X182359343Y-193000057D01*
X182359343Y-193142914D01*
X181645057Y-193285771D01*
X183002200Y-193642914D02*
X183073628Y-193714343D01*
X183002200Y-193785771D01*
X182930771Y-193714343D01*
X183002200Y-193642914D01*
X183002200Y-193785771D01*
X183002200Y-192857200D02*
X183073628Y-192928629D01*
X183002200Y-193000057D01*
X182930771Y-192928629D01*
X183002200Y-192857200D01*
X183002200Y-193000057D01*
X184787914Y-193357200D02*
X185502200Y-193357200D01*
X184645057Y-193785771D02*
X185145057Y-192285771D01*
X185645057Y-193785771D01*
X186787914Y-192785771D02*
X186787914Y-193785771D01*
X186430771Y-192214343D02*
X186073628Y-193285771D01*
X187002200Y-193285771D01*
D10*
D11*
X263359343Y-196585771D02*
X263359343Y-195085771D01*
X264716486Y-196585771D02*
X264716486Y-195085771D01*
X264716486Y-196514343D02*
X264573629Y-196585771D01*
X264287915Y-196585771D01*
X264145057Y-196514343D01*
X264073629Y-196442914D01*
X264002200Y-196300057D01*
X264002200Y-195871486D01*
X264073629Y-195728629D01*
X264145057Y-195657200D01*
X264287915Y-195585771D01*
X264573629Y-195585771D01*
X264716486Y-195657200D01*
X265430772Y-196442914D02*
X265502200Y-196514343D01*
X265430772Y-196585771D01*
X265359343Y-196514343D01*
X265430772Y-196442914D01*
X265430772Y-196585771D01*
X265430772Y-195657200D02*
X265502200Y-195728629D01*
X265430772Y-195800057D01*
X265359343Y-195728629D01*
X265430772Y-195657200D01*
X265430772Y-195800057D01*
X268073629Y-196585771D02*
X267216486Y-196585771D01*
X267645058Y-196585771D02*
X267645058Y-195085771D01*
X267502201Y-195300057D01*
X267359343Y-195442914D01*
X267216486Y-195514343D01*
X269787914Y-195014343D02*
X268502200Y-196942914D01*
X271073629Y-196585771D02*
X270216486Y-196585771D01*
X270645058Y-196585771D02*
X270645058Y-195085771D01*
X270502201Y-195300057D01*
X270359343Y-195442914D01*
X270216486Y-195514343D01*
D10*
D11*
X177002200Y-187507200D02*
X285002200Y-187507200D01*
D10*
D13*
X178454581Y-188211962D02*
X179597438Y-188211962D01*
X178776010Y-190211962D02*
X179026010Y-188211962D01*
X180014105Y-190211962D02*
X180180771Y-188878629D01*
X180264105Y-188211962D02*
X180156962Y-188307200D01*
X180240295Y-188402438D01*
X180347439Y-188307200D01*
X180264105Y-188211962D01*
X180240295Y-188402438D01*
X180847438Y-188878629D02*
X181609343Y-188878629D01*
X181216486Y-188211962D02*
X181002200Y-189926248D01*
X181073630Y-190116724D01*
X181252201Y-190211962D01*
X181442677Y-190211962D01*
X182395058Y-190211962D02*
X182216487Y-190116724D01*
X182145057Y-189926248D01*
X182359343Y-188211962D01*
X183930772Y-190116724D02*
X183728391Y-190211962D01*
X183347439Y-190211962D01*
X183168867Y-190116724D01*
X183097438Y-189926248D01*
X183192676Y-189164343D01*
X183311724Y-188973867D01*
X183514105Y-188878629D01*
X183895057Y-188878629D01*
X184073629Y-188973867D01*
X184145057Y-189164343D01*
X184121248Y-189354819D01*
X183145057Y-189545295D01*
X184895057Y-190021486D02*
X184978392Y-190116724D01*
X184871248Y-190211962D01*
X184787915Y-190116724D01*
X184895057Y-190021486D01*
X184871248Y-190211962D01*
X185026010Y-188973867D02*
X185109344Y-189069105D01*
X185002200Y-189164343D01*
X184918867Y-189069105D01*
X185026010Y-188973867D01*
X185002200Y-189164343D01*
D10*
D11*
X178859343Y-185600057D02*
X178359343Y-185600057D01*
X178359343Y-186385771D02*
X178359343Y-184885771D01*
X179073629Y-184885771D01*
X179645057Y-186385771D02*
X179645057Y-185385771D01*
X179645057Y-184885771D02*
X179573628Y-184957200D01*
X179645057Y-185028629D01*
X179716485Y-184957200D01*
X179645057Y-184885771D01*
X179645057Y-185028629D01*
X180573629Y-186385771D02*
X180430771Y-186314343D01*
X180359343Y-186171486D01*
X180359343Y-184885771D01*
X181716485Y-186314343D02*
X181573628Y-186385771D01*
X181287914Y-186385771D01*
X181145057Y-186314343D01*
X181073628Y-186171486D01*
X181073628Y-185600057D01*
X181145057Y-185457200D01*
X181287914Y-185385771D01*
X181573628Y-185385771D01*
X181716485Y-185457200D01*
X181787914Y-185600057D01*
X181787914Y-185742914D01*
X181073628Y-185885771D01*
X182430771Y-186242914D02*
X182502199Y-186314343D01*
X182430771Y-186385771D01*
X182359342Y-186314343D01*
X182430771Y-186242914D01*
X182430771Y-186385771D01*
X182430771Y-185457200D02*
X182502199Y-185528629D01*
X182430771Y-185600057D01*
X182359342Y-185528629D01*
X182430771Y-185457200D01*
X182430771Y-185600057D01*
X184073628Y-184885771D02*
X184573628Y-186385771D01*
X185073628Y-184885771D01*
X185573628Y-186385771D02*
X185573628Y-185385771D01*
X185573628Y-184885771D02*
X185502199Y-184957200D01*
X185573628Y-185028629D01*
X185645056Y-184957200D01*
X185573628Y-184885771D01*
X185573628Y-185028629D01*
X186287914Y-186385771D02*
X186287914Y-184885771D01*
X186287914Y-185457200D02*
X186430771Y-185385771D01*
X186716485Y-185385771D01*
X186859342Y-185457200D01*
X186930771Y-185528629D01*
X187002200Y-185671486D01*
X187002200Y-186100057D01*
X186930771Y-186242914D01*
X186859342Y-186314343D01*
X186716485Y-186385771D01*
X186430771Y-186385771D01*
X186287914Y-186314343D01*
X187645057Y-186385771D02*
X187645057Y-185385771D01*
X187645057Y-185671486D02*
X187716485Y-185528629D01*
X187787914Y-185457200D01*
X187930771Y-185385771D01*
X188073628Y-185385771D01*
X189216485Y-186385771D02*
X189216485Y-185600057D01*
X189145056Y-185457200D01*
X189002199Y-185385771D01*
X188716485Y-185385771D01*
X188573628Y-185457200D01*
X189216485Y-186314343D02*
X189073628Y-186385771D01*
X188716485Y-186385771D01*
X188573628Y-186314343D01*
X188502199Y-186171486D01*
X188502199Y-186028629D01*
X188573628Y-185885771D01*
X188716485Y-185814343D01*
X189073628Y-185814343D01*
X189216485Y-185742914D01*
X189716485Y-185385771D02*
X190287914Y-185385771D01*
X189930771Y-184885771D02*
X189930771Y-186171486D01*
X190002199Y-186314343D01*
X190145057Y-186385771D01*
X190287914Y-186385771D01*
X191002200Y-186385771D02*
X190859342Y-186314343D01*
X190787914Y-186242914D01*
X190716485Y-186100057D01*
X190716485Y-185671486D01*
X190787914Y-185528629D01*
X190859342Y-185457200D01*
X191002200Y-185385771D01*
X191216485Y-185385771D01*
X191359342Y-185457200D01*
X191430771Y-185528629D01*
X191502200Y-185671486D01*
X191502200Y-186100057D01*
X191430771Y-186242914D01*
X191359342Y-186314343D01*
X191216485Y-186385771D01*
X191002200Y-186385771D01*
X192145057Y-186385771D02*
X192145057Y-185385771D01*
X192145057Y-185671486D02*
X192216485Y-185528629D01*
X192287914Y-185457200D01*
X192430771Y-185385771D01*
X192573628Y-185385771D01*
X192716485Y-186528629D02*
X193859342Y-186528629D01*
X194930771Y-186385771D02*
X194216485Y-186385771D01*
X194216485Y-184885771D01*
X196002199Y-186314343D02*
X195859342Y-186385771D01*
X195573628Y-186385771D01*
X195430771Y-186314343D01*
X195359342Y-186171486D01*
X195359342Y-185600057D01*
X195430771Y-185457200D01*
X195573628Y-185385771D01*
X195859342Y-185385771D01*
X196002199Y-185457200D01*
X196073628Y-185600057D01*
X196073628Y-185742914D01*
X195359342Y-185885771D01*
X197359342Y-186385771D02*
X197359342Y-185600057D01*
X197287913Y-185457200D01*
X197145056Y-185385771D01*
X196859342Y-185385771D01*
X196716485Y-185457200D01*
X197359342Y-186314343D02*
X197216485Y-186385771D01*
X196859342Y-186385771D01*
X196716485Y-186314343D01*
X196645056Y-186171486D01*
X196645056Y-186028629D01*
X196716485Y-185885771D01*
X196859342Y-185814343D01*
X197216485Y-185814343D01*
X197359342Y-185742914D01*
X197859342Y-185385771D02*
X198430771Y-185385771D01*
X198073628Y-184885771D02*
X198073628Y-186171486D01*
X198145056Y-186314343D01*
X198287914Y-186385771D01*
X198430771Y-186385771D01*
X198930771Y-186385771D02*
X198930771Y-184885771D01*
X199573628Y-186385771D02*
X199573628Y-185600057D01*
X199502199Y-185457200D01*
X199359342Y-185385771D01*
X199145057Y-185385771D01*
X199002199Y-185457200D01*
X198930771Y-185528629D01*
X200859342Y-186314343D02*
X200716485Y-186385771D01*
X200430771Y-186385771D01*
X200287914Y-186314343D01*
X200216485Y-186171486D01*
X200216485Y-185600057D01*
X200287914Y-185457200D01*
X200430771Y-185385771D01*
X200716485Y-185385771D01*
X200859342Y-185457200D01*
X200930771Y-185600057D01*
X200930771Y-185742914D01*
X200216485Y-185885771D01*
X201573628Y-186385771D02*
X201573628Y-185385771D01*
X201573628Y-185671486D02*
X201645056Y-185528629D01*
X201716485Y-185457200D01*
X201859342Y-185385771D01*
X202002199Y-185385771D01*
X202145056Y-186528629D02*
X203287913Y-186528629D01*
X204145056Y-185600057D02*
X204359342Y-185671486D01*
X204430770Y-185742914D01*
X204502199Y-185885771D01*
X204502199Y-186100057D01*
X204430770Y-186242914D01*
X204359342Y-186314343D01*
X204216484Y-186385771D01*
X203645056Y-186385771D01*
X203645056Y-184885771D01*
X204145056Y-184885771D01*
X204287913Y-184957200D01*
X204359342Y-185028629D01*
X204430770Y-185171486D01*
X204430770Y-185314343D01*
X204359342Y-185457200D01*
X204287913Y-185528629D01*
X204145056Y-185600057D01*
X203645056Y-185600057D01*
X205716484Y-186314343D02*
X205573627Y-186385771D01*
X205287913Y-186385771D01*
X205145056Y-186314343D01*
X205073627Y-186171486D01*
X205073627Y-185600057D01*
X205145056Y-185457200D01*
X205287913Y-185385771D01*
X205573627Y-185385771D01*
X205716484Y-185457200D01*
X205787913Y-185600057D01*
X205787913Y-185742914D01*
X205073627Y-185885771D01*
X206645056Y-186385771D02*
X206502198Y-186314343D01*
X206430770Y-186171486D01*
X206430770Y-184885771D01*
X207002198Y-185385771D02*
X207573627Y-185385771D01*
X207216484Y-184885771D02*
X207216484Y-186171486D01*
X207287912Y-186314343D01*
X207430770Y-186385771D01*
X207573627Y-186385771D01*
X207716484Y-186528629D02*
X208859341Y-186528629D01*
X209859341Y-186314343D02*
X209716484Y-186385771D01*
X209430770Y-186385771D01*
X209287912Y-186314343D01*
X209216484Y-186242914D01*
X209145055Y-186100057D01*
X209145055Y-185671486D01*
X209216484Y-185528629D01*
X209287912Y-185457200D01*
X209430770Y-185385771D01*
X209716484Y-185385771D01*
X209859341Y-185457200D01*
X210716484Y-186385771D02*
X210573626Y-186314343D01*
X210502198Y-186242914D01*
X210430769Y-186100057D01*
X210430769Y-185671486D01*
X210502198Y-185528629D01*
X210573626Y-185457200D01*
X210716484Y-185385771D01*
X210930769Y-185385771D01*
X211073626Y-185457200D01*
X211145055Y-185528629D01*
X211216484Y-185671486D01*
X211216484Y-186100057D01*
X211145055Y-186242914D01*
X211073626Y-186314343D01*
X210930769Y-186385771D01*
X210716484Y-186385771D01*
X211859341Y-185385771D02*
X211859341Y-186385771D01*
X211859341Y-185528629D02*
X211930769Y-185457200D01*
X212073627Y-185385771D01*
X212287912Y-185385771D01*
X212430769Y-185457200D01*
X212502198Y-185600057D01*
X212502198Y-186385771D01*
X213002198Y-185385771D02*
X213573627Y-185385771D01*
X213216484Y-184885771D02*
X213216484Y-186171486D01*
X213287912Y-186314343D01*
X213430770Y-186385771D01*
X213573627Y-186385771D01*
X214073627Y-186385771D02*
X214073627Y-185385771D01*
X214073627Y-185671486D02*
X214145055Y-185528629D01*
X214216484Y-185457200D01*
X214359341Y-185385771D01*
X214502198Y-185385771D01*
X215216484Y-186385771D02*
X215073626Y-186314343D01*
X215002198Y-186242914D01*
X214930769Y-186100057D01*
X214930769Y-185671486D01*
X215002198Y-185528629D01*
X215073626Y-185457200D01*
X215216484Y-185385771D01*
X215430769Y-185385771D01*
X215573626Y-185457200D01*
X215645055Y-185528629D01*
X215716484Y-185671486D01*
X215716484Y-186100057D01*
X215645055Y-186242914D01*
X215573626Y-186314343D01*
X215430769Y-186385771D01*
X215216484Y-186385771D01*
X216573627Y-186385771D02*
X216430769Y-186314343D01*
X216359341Y-186171486D01*
X216359341Y-184885771D01*
X216787912Y-186528629D02*
X217930769Y-186528629D01*
X218787912Y-185600057D02*
X219002198Y-185671486D01*
X219073626Y-185742914D01*
X219145055Y-185885771D01*
X219145055Y-186100057D01*
X219073626Y-186242914D01*
X219002198Y-186314343D01*
X218859340Y-186385771D01*
X218287912Y-186385771D01*
X218287912Y-184885771D01*
X218787912Y-184885771D01*
X218930769Y-184957200D01*
X219002198Y-185028629D01*
X219073626Y-185171486D01*
X219073626Y-185314343D01*
X219002198Y-185457200D01*
X218930769Y-185528629D01*
X218787912Y-185600057D01*
X218287912Y-185600057D01*
X220002198Y-186385771D02*
X219859340Y-186314343D01*
X219787912Y-186242914D01*
X219716483Y-186100057D01*
X219716483Y-185671486D01*
X219787912Y-185528629D01*
X219859340Y-185457200D01*
X220002198Y-185385771D01*
X220216483Y-185385771D01*
X220359340Y-185457200D01*
X220430769Y-185528629D01*
X220502198Y-185671486D01*
X220502198Y-186100057D01*
X220430769Y-186242914D01*
X220359340Y-186314343D01*
X220216483Y-186385771D01*
X220002198Y-186385771D01*
X221002198Y-186385771D02*
X221787912Y-185385771D01*
X221002198Y-185385771D02*
X221787912Y-186385771D01*
X222359341Y-186242914D02*
X222430769Y-186314343D01*
X222359341Y-186385771D01*
X222287912Y-186314343D01*
X222359341Y-186242914D01*
X222359341Y-186385771D01*
X223073627Y-186385771D02*
X223073627Y-184885771D01*
X223216484Y-185814343D02*
X223645055Y-186385771D01*
X223645055Y-185385771D02*
X223073627Y-185957200D01*
X224287913Y-186385771D02*
X224287913Y-185385771D01*
X224287913Y-184885771D02*
X224216484Y-184957200D01*
X224287913Y-185028629D01*
X224359341Y-184957200D01*
X224287913Y-184885771D01*
X224287913Y-185028629D01*
X225645056Y-186314343D02*
X225502199Y-186385771D01*
X225216485Y-186385771D01*
X225073627Y-186314343D01*
X225002199Y-186242914D01*
X224930770Y-186100057D01*
X224930770Y-185671486D01*
X225002199Y-185528629D01*
X225073627Y-185457200D01*
X225216485Y-185385771D01*
X225502199Y-185385771D01*
X225645056Y-185457200D01*
X226930770Y-186385771D02*
X226930770Y-185600057D01*
X226859341Y-185457200D01*
X226716484Y-185385771D01*
X226430770Y-185385771D01*
X226287913Y-185457200D01*
X226930770Y-186314343D02*
X226787913Y-186385771D01*
X226430770Y-186385771D01*
X226287913Y-186314343D01*
X226216484Y-186171486D01*
X226216484Y-186028629D01*
X226287913Y-185885771D01*
X226430770Y-185814343D01*
X226787913Y-185814343D01*
X226930770Y-185742914D01*
X228287913Y-186385771D02*
X228287913Y-184885771D01*
X228287913Y-186314343D02*
X228145056Y-186385771D01*
X227859342Y-186385771D01*
X227716484Y-186314343D01*
X227645056Y-186242914D01*
X227573627Y-186100057D01*
X227573627Y-185671486D01*
X227645056Y-185528629D01*
X227716484Y-185457200D01*
X227859342Y-185385771D01*
X228145056Y-185385771D01*
X228287913Y-185457200D01*
X228645056Y-186528629D02*
X229787913Y-186528629D01*
X230145056Y-185385771D02*
X230145056Y-186885771D01*
X230145056Y-185457200D02*
X230287913Y-185385771D01*
X230573627Y-185385771D01*
X230716484Y-185457200D01*
X230787913Y-185528629D01*
X230859342Y-185671486D01*
X230859342Y-186100057D01*
X230787913Y-186242914D01*
X230716484Y-186314343D01*
X230573627Y-186385771D01*
X230287913Y-186385771D01*
X230145056Y-186314343D01*
X232145056Y-186314343D02*
X232002199Y-186385771D01*
X231716485Y-186385771D01*
X231573627Y-186314343D01*
X231502199Y-186242914D01*
X231430770Y-186100057D01*
X231430770Y-185671486D01*
X231502199Y-185528629D01*
X231573627Y-185457200D01*
X231716485Y-185385771D01*
X232002199Y-185385771D01*
X232145056Y-185457200D01*
X232787913Y-186385771D02*
X232787913Y-184885771D01*
X232787913Y-185457200D02*
X232930770Y-185385771D01*
X233216484Y-185385771D01*
X233359341Y-185457200D01*
X233430770Y-185528629D01*
X233502199Y-185671486D01*
X233502199Y-186100057D01*
X233430770Y-186242914D01*
X233359341Y-186314343D01*
X233216484Y-186385771D01*
X232930770Y-186385771D01*
X232787913Y-186314343D01*
D10*
D11*
X177002200Y-181507200D02*
X285002200Y-181507200D01*
D10*
D11*
X178287914Y-183614343D02*
X178502200Y-183685771D01*
X178859343Y-183685771D01*
X179002200Y-183614343D01*
X179073629Y-183542914D01*
X179145057Y-183400057D01*
X179145057Y-183257200D01*
X179073629Y-183114343D01*
X179002200Y-183042914D01*
X178859343Y-182971486D01*
X178573629Y-182900057D01*
X178430771Y-182828629D01*
X178359343Y-182757200D01*
X178287914Y-182614343D01*
X178287914Y-182471486D01*
X178359343Y-182328629D01*
X178430771Y-182257200D01*
X178573629Y-182185771D01*
X178930771Y-182185771D01*
X179145057Y-182257200D01*
X179787914Y-183685771D02*
X179787914Y-182185771D01*
X180430771Y-183685771D02*
X180430771Y-182900057D01*
X180359342Y-182757200D01*
X180216485Y-182685771D01*
X180002200Y-182685771D01*
X179859342Y-182757200D01*
X179787914Y-182828629D01*
X181716485Y-183614343D02*
X181573628Y-183685771D01*
X181287914Y-183685771D01*
X181145057Y-183614343D01*
X181073628Y-183471486D01*
X181073628Y-182900057D01*
X181145057Y-182757200D01*
X181287914Y-182685771D01*
X181573628Y-182685771D01*
X181716485Y-182757200D01*
X181787914Y-182900057D01*
X181787914Y-183042914D01*
X181073628Y-183185771D01*
X183002199Y-183614343D02*
X182859342Y-183685771D01*
X182573628Y-183685771D01*
X182430771Y-183614343D01*
X182359342Y-183471486D01*
X182359342Y-182900057D01*
X182430771Y-182757200D01*
X182573628Y-182685771D01*
X182859342Y-182685771D01*
X183002199Y-182757200D01*
X183073628Y-182900057D01*
X183073628Y-183042914D01*
X182359342Y-183185771D01*
X183502199Y-182685771D02*
X184073628Y-182685771D01*
X183716485Y-182185771D02*
X183716485Y-183471486D01*
X183787913Y-183614343D01*
X183930771Y-183685771D01*
X184073628Y-183685771D01*
X184573628Y-183542914D02*
X184645056Y-183614343D01*
X184573628Y-183685771D01*
X184502199Y-183614343D01*
X184573628Y-183542914D01*
X184573628Y-183685771D01*
X184573628Y-182757200D02*
X184645056Y-182828629D01*
X184573628Y-182900057D01*
X184502199Y-182828629D01*
X184573628Y-182757200D01*
X184573628Y-182900057D01*
D10*
D11*
X197002200Y-191507200D02*
X197002200Y-194507200D01*
D10*
D11*
X261002200Y-191507200D02*
X261002200Y-198007200D01*
D14*
X61575000Y-55750000D03*
X67225000Y-55750000D03*
D15*
X80300000Y-57900000D03*
X80300000Y-59900000D03*
D16*
X105750000Y-65000000D03*
D17*
X103210000Y-65000000D03*
X105750000Y-62460000D03*
X103210000Y-62460000D03*
X105750000Y-59920000D03*
X103210000Y-59920000D03*
D18*
X81098860Y-74750000D03*
X71401140Y-74750000D03*
D19*
X57500000Y-75750000D03*
X57500000Y-72250000D03*
X95571800Y-83713100D03*
X94482500Y-81963500D03*
X98046800Y-64237700D03*
X64285500Y-72947800D03*
X63054800Y-82418900D03*
X58262400Y-81016700D03*
X69751300Y-63667200D03*
X61430000Y-68291100D03*
X57987600Y-84500900D03*
X67940200Y-84125400D03*
X98007000Y-68028000D03*
X101530000Y-67855600D03*
X80933800Y-67947300D03*
X78513600Y-60576900D03*
X84834200Y-87700000D03*
X84652900Y-81503200D03*
X76131000Y-79079800D03*
X63740000Y-83750000D03*
X98231800Y-66563600D03*
X96120400Y-68043600D03*
X96834500Y-67201600D03*
X83283200Y-77000000D03*
X98832900Y-79440400D03*
X76415000Y-70143100D03*
X78072100Y-70652900D03*
X96083600Y-75397100D03*
X79141700Y-71296100D03*
X96200000Y-73327700D03*
X96123000Y-71514100D03*
X73523800Y-65724700D03*
X95146100Y-71441400D03*
X69325000Y-68378600D03*
X94152100Y-79176800D03*
X96999900Y-68031000D03*
X99874700Y-79430400D03*
X100961600Y-56191700D03*
X88497300Y-74176600D03*
X87961700Y-75000000D03*
D20*
X57500000Y-72250000D02*
X57500000Y-75750000D01*
X103210000Y-59920000D02*
X102021100Y-59920000D01*
X95571800Y-83052800D02*
X95571800Y-83713100D01*
X94482500Y-81963500D02*
X95571800Y-83052800D01*
X78165000Y-59900000D02*
X80300000Y-59900000D01*
X76421500Y-61643500D02*
X78165000Y-59900000D01*
X67171000Y-61643500D02*
X76421500Y-61643500D01*
X57500000Y-71314500D02*
X67171000Y-61643500D01*
X57500000Y-72250000D02*
X57500000Y-71314500D01*
X98046800Y-59920000D02*
X98046800Y-64237700D01*
X80320000Y-59920000D02*
X98046800Y-59920000D01*
X80300000Y-59900000D02*
X80320000Y-59920000D01*
X98046800Y-59920000D02*
X102021100Y-59920000D01*
X63054800Y-74178500D02*
X64285500Y-72947800D01*
X63054800Y-81154400D02*
X63054800Y-74178500D01*
X62271900Y-69133000D02*
X61430000Y-68291100D01*
X64285500Y-69133000D02*
X62271900Y-69133000D01*
X64285500Y-72947800D02*
X64285500Y-69133000D01*
X64285500Y-69133000D02*
X69751300Y-63667200D01*
X58335700Y-81090000D02*
X58262400Y-81016700D01*
X58335700Y-81154400D02*
X58335700Y-81090000D01*
X63054800Y-81154400D02*
X58335700Y-81154400D01*
X57987600Y-81502500D02*
X57987600Y-84500900D01*
X58335700Y-81154400D02*
X57987600Y-81502500D01*
X63054800Y-81154400D02*
X63054800Y-82418900D01*
X66233700Y-82418900D02*
X67940200Y-84125400D01*
X63054800Y-82418900D02*
X66233700Y-82418900D01*
X98179400Y-67855600D02*
X101530000Y-67855600D01*
X98007000Y-68028000D02*
X98179400Y-67855600D01*
X103210000Y-65000000D02*
X103210000Y-66188900D01*
X103196700Y-66188900D02*
X103210000Y-66188900D01*
X101530000Y-67855600D02*
X103196700Y-66188900D01*
X78513600Y-65527100D02*
X80933800Y-67947300D01*
X78513600Y-60576900D02*
X78513600Y-65527100D01*
X84652900Y-87518700D02*
X84652900Y-81503200D01*
X84834200Y-87700000D02*
X84652900Y-87518700D01*
X64759100Y-84769100D02*
X63740000Y-83750000D01*
X70441700Y-84769100D02*
X64759100Y-84769100D01*
X76131000Y-79079800D02*
X70441700Y-84769100D01*
X105750000Y-65000000D02*
X104561100Y-65000000D01*
X104561100Y-64628500D02*
X104561100Y-65000000D01*
X103743600Y-63811000D02*
X104561100Y-64628500D01*
X100984400Y-63811000D02*
X103743600Y-63811000D01*
X98231800Y-66563600D02*
X100984400Y-63811000D01*
X104561100Y-62088400D02*
X104561100Y-62460000D01*
X103743800Y-61271100D02*
X104561100Y-62088400D01*
X101935000Y-61271100D02*
X103743800Y-61271100D01*
X97976200Y-65229900D02*
X101935000Y-61271100D01*
X97872200Y-65229900D02*
X97976200Y-65229900D01*
X96120400Y-66981700D02*
X97872200Y-65229900D01*
X96120400Y-68043600D02*
X96120400Y-66981700D01*
X105750000Y-62460000D02*
X104561100Y-62460000D01*
X101427600Y-62460000D02*
X103210000Y-62460000D01*
X96834500Y-67053100D02*
X101427600Y-62460000D01*
X96834500Y-67201600D02*
X96834500Y-67053100D01*
X98470900Y-79802400D02*
X98832900Y-79440400D01*
X91995800Y-79802400D02*
X98470900Y-79802400D01*
X89122600Y-76929200D02*
X91995800Y-79802400D01*
X89051800Y-77000000D02*
X89122600Y-76929200D01*
X83283200Y-77000000D02*
X89051800Y-77000000D01*
X78820400Y-72548500D02*
X76415000Y-70143100D01*
X87753600Y-72548500D02*
X78820400Y-72548500D01*
X89122600Y-73917500D02*
X87753600Y-72548500D01*
X89122600Y-76929200D02*
X89122600Y-73917500D01*
X78072200Y-70652900D02*
X78072100Y-70652900D01*
X78072200Y-71110900D02*
X78072200Y-70652900D01*
X78882700Y-71921400D02*
X78072200Y-71110900D01*
X92607900Y-71921400D02*
X78882700Y-71921400D01*
X96083600Y-75397100D02*
X92607900Y-71921400D01*
X95094100Y-73327700D02*
X96200000Y-73327700D01*
X93062500Y-71296100D02*
X95094100Y-73327700D01*
X79141700Y-71296100D02*
X93062500Y-71296100D01*
X76783100Y-68984000D02*
X73523800Y-65724700D01*
X93592900Y-68984000D02*
X76783100Y-68984000D01*
X96123000Y-71514100D02*
X93592900Y-68984000D01*
X93191000Y-69486300D02*
X95146100Y-71441400D01*
X70432700Y-69486300D02*
X93191000Y-69486300D01*
X69325000Y-68378600D02*
X70432700Y-69486300D01*
X96999900Y-76329000D02*
X94152100Y-79176800D01*
X96999900Y-68031000D02*
X96999900Y-76329000D01*
X99874700Y-75108300D02*
X99874700Y-79430400D01*
X106942100Y-68040900D02*
X99874700Y-75108300D01*
X106942100Y-61965100D02*
X106942100Y-68040900D01*
X106134300Y-61157300D02*
X106942100Y-61965100D01*
X105300500Y-61157300D02*
X106134300Y-61157300D01*
X104480000Y-60336800D02*
X105300500Y-61157300D01*
X104480000Y-59470600D02*
X104480000Y-60336800D01*
X101201100Y-56191700D02*
X104480000Y-59470600D01*
X100961600Y-56191700D02*
X101201100Y-56191700D01*
X87695100Y-73374400D02*
X88497300Y-74176600D01*
X71401100Y-73374400D02*
X87695100Y-73374400D01*
X71401100Y-74750000D02*
X71401100Y-73374400D01*
X81098900Y-74750000D02*
X84224500Y-74750000D01*
X84474500Y-75000000D02*
X87961700Y-75000000D01*
X84224500Y-74750000D02*
X84474500Y-75000000D01*
M02*
