G04 #@! TF.FileFunction,Legend,Top*
%FSLAX46Y46*%
G04 Gerber Fmt 4.6, Leading zero omitted, Abs format (unit mm)*
G04 Created by KiCad (PCBNEW 4.0.2-stable) date 2016 October 13, Thursday 23:14:49*
%MOMM*%
G01*
G04 APERTURE LIST*
%ADD10C,0.100000*%
%ADD11C,0.150000*%
%ADD12C,0.300000*%
%ADD13C,0.400000*%
%ADD14C,0.200000*%
%ADD15C,0.250000*%
%ADD16C,0.075000*%
%ADD17R,1.600000X1.300000*%
%ADD18O,1.450000X2.200000*%
%ADD19C,1.050000*%
%ADD20R,0.800000X1.800000*%
%ADD21C,1.924000*%
%ADD22R,1.700000X1.900000*%
%ADD23R,1.300000X1.600000*%
%ADD24R,1.900000X1.700000*%
%ADD25R,1.620000X1.310000*%
%ADD26R,1.900000X1.600000*%
%ADD27C,2.600000*%
%ADD28R,1.050000X1.460000*%
%ADD29R,0.650000X1.400000*%
%ADD30R,1.400000X0.650000*%
%ADD31R,2.127200X2.127200*%
%ADD32O,2.127200X2.127200*%
%ADD33R,2.200860X1.200100*%
%ADD34R,1.400000X1.000000*%
%ADD35R,1.000000X1.900000*%
%ADD36C,1.100000*%
%ADD37R,1.600000X1.600000*%
%ADD38C,1.200000*%
%ADD39R,1.460000X1.050000*%
%ADD40R,0.950000X1.900000*%
%ADD41R,1.900000X0.950000*%
%ADD42R,2.900000X0.700000*%
%ADD43R,1.800000X2.900000*%
%ADD44R,3.200000X1.900000*%
%ADD45C,1.900000*%
G04 APERTURE END LIST*
D10*
D11*
X177002200Y-166007200D02*
X177002200Y-198007200D01*
X285002200Y-198007200D01*
X285002200Y-166007200D01*
X177002200Y-166007200D01*
D10*
D11*
X10000000Y-10000000D02*
X10000000Y-200007200D01*
X287002200Y-200007200D01*
X287002200Y-10000000D01*
X10000000Y-10000000D01*
D10*
D11*
X12000000Y-12000000D02*
X12000000Y-198007200D01*
X285002200Y-198007200D01*
X285002200Y-12000000D01*
X12000000Y-12000000D01*
D10*
D11*
X60000000Y-12000000D02*
X60000000Y-10000000D01*
D10*
D11*
X110000000Y-12000000D02*
X110000000Y-10000000D01*
D10*
D11*
X160000000Y-12000000D02*
X160000000Y-10000000D01*
D10*
D11*
X210000000Y-12000000D02*
X210000000Y-10000000D01*
D10*
D11*
X260000000Y-12000000D02*
X260000000Y-10000000D01*
D10*
D11*
X35990476Y-11588095D02*
X35247619Y-11588095D01*
X35619048Y-11588095D02*
X35619048Y-10288095D01*
X35495238Y-10473810D01*
X35371429Y-10597619D01*
X35247619Y-10659524D01*
D10*
D11*
X85247619Y-10411905D02*
X85309524Y-10350000D01*
X85433333Y-10288095D01*
X85742857Y-10288095D01*
X85866667Y-10350000D01*
X85928571Y-10411905D01*
X85990476Y-10535714D01*
X85990476Y-10659524D01*
X85928571Y-10845238D01*
X85185714Y-11588095D01*
X85990476Y-11588095D01*
D10*
D11*
X135185714Y-10288095D02*
X135990476Y-10288095D01*
X135557143Y-10783333D01*
X135742857Y-10783333D01*
X135866667Y-10845238D01*
X135928571Y-10907143D01*
X135990476Y-11030952D01*
X135990476Y-11340476D01*
X135928571Y-11464286D01*
X135866667Y-11526190D01*
X135742857Y-11588095D01*
X135371429Y-11588095D01*
X135247619Y-11526190D01*
X135185714Y-11464286D01*
D10*
D11*
X185866667Y-10721429D02*
X185866667Y-11588095D01*
X185557143Y-10226190D02*
X185247619Y-11154762D01*
X186052381Y-11154762D01*
D10*
D11*
X235928571Y-10288095D02*
X235309524Y-10288095D01*
X235247619Y-10907143D01*
X235309524Y-10845238D01*
X235433333Y-10783333D01*
X235742857Y-10783333D01*
X235866667Y-10845238D01*
X235928571Y-10907143D01*
X235990476Y-11030952D01*
X235990476Y-11340476D01*
X235928571Y-11464286D01*
X235866667Y-11526190D01*
X235742857Y-11588095D01*
X235433333Y-11588095D01*
X235309524Y-11526190D01*
X235247619Y-11464286D01*
D10*
D11*
X285866667Y-10288095D02*
X285619048Y-10288095D01*
X285495238Y-10350000D01*
X285433333Y-10411905D01*
X285309524Y-10597619D01*
X285247619Y-10845238D01*
X285247619Y-11340476D01*
X285309524Y-11464286D01*
X285371429Y-11526190D01*
X285495238Y-11588095D01*
X285742857Y-11588095D01*
X285866667Y-11526190D01*
X285928571Y-11464286D01*
X285990476Y-11340476D01*
X285990476Y-11030952D01*
X285928571Y-10907143D01*
X285866667Y-10845238D01*
X285742857Y-10783333D01*
X285495238Y-10783333D01*
X285371429Y-10845238D01*
X285309524Y-10907143D01*
X285247619Y-11030952D01*
D10*
D11*
X60000000Y-198007200D02*
X60000000Y-200007200D01*
D10*
D11*
X110000000Y-198007200D02*
X110000000Y-200007200D01*
D10*
D11*
X160000000Y-198007200D02*
X160000000Y-200007200D01*
D10*
D11*
X210000000Y-198007200D02*
X210000000Y-200007200D01*
D10*
D11*
X260000000Y-198007200D02*
X260000000Y-200007200D01*
D10*
D11*
X35990476Y-199595295D02*
X35247619Y-199595295D01*
X35619048Y-199595295D02*
X35619048Y-198295295D01*
X35495238Y-198481010D01*
X35371429Y-198604819D01*
X35247619Y-198666724D01*
D10*
D11*
X85247619Y-198419105D02*
X85309524Y-198357200D01*
X85433333Y-198295295D01*
X85742857Y-198295295D01*
X85866667Y-198357200D01*
X85928571Y-198419105D01*
X85990476Y-198542914D01*
X85990476Y-198666724D01*
X85928571Y-198852438D01*
X85185714Y-199595295D01*
X85990476Y-199595295D01*
D10*
D11*
X135185714Y-198295295D02*
X135990476Y-198295295D01*
X135557143Y-198790533D01*
X135742857Y-198790533D01*
X135866667Y-198852438D01*
X135928571Y-198914343D01*
X135990476Y-199038152D01*
X135990476Y-199347676D01*
X135928571Y-199471486D01*
X135866667Y-199533390D01*
X135742857Y-199595295D01*
X135371429Y-199595295D01*
X135247619Y-199533390D01*
X135185714Y-199471486D01*
D10*
D11*
X185866667Y-198728629D02*
X185866667Y-199595295D01*
X185557143Y-198233390D02*
X185247619Y-199161962D01*
X186052381Y-199161962D01*
D10*
D11*
X235928571Y-198295295D02*
X235309524Y-198295295D01*
X235247619Y-198914343D01*
X235309524Y-198852438D01*
X235433333Y-198790533D01*
X235742857Y-198790533D01*
X235866667Y-198852438D01*
X235928571Y-198914343D01*
X235990476Y-199038152D01*
X235990476Y-199347676D01*
X235928571Y-199471486D01*
X235866667Y-199533390D01*
X235742857Y-199595295D01*
X235433333Y-199595295D01*
X235309524Y-199533390D01*
X235247619Y-199471486D01*
D10*
D11*
X285866667Y-198295295D02*
X285619048Y-198295295D01*
X285495238Y-198357200D01*
X285433333Y-198419105D01*
X285309524Y-198604819D01*
X285247619Y-198852438D01*
X285247619Y-199347676D01*
X285309524Y-199471486D01*
X285371429Y-199533390D01*
X285495238Y-199595295D01*
X285742857Y-199595295D01*
X285866667Y-199533390D01*
X285928571Y-199471486D01*
X285990476Y-199347676D01*
X285990476Y-199038152D01*
X285928571Y-198914343D01*
X285866667Y-198852438D01*
X285742857Y-198790533D01*
X285495238Y-198790533D01*
X285371429Y-198852438D01*
X285309524Y-198914343D01*
X285247619Y-199038152D01*
D10*
D11*
X10000000Y-60000000D02*
X12000000Y-60000000D01*
D10*
D11*
X10000000Y-110000000D02*
X12000000Y-110000000D01*
D10*
D11*
X10000000Y-160000000D02*
X12000000Y-160000000D01*
D10*
D11*
X10690476Y-35216667D02*
X11309524Y-35216667D01*
X10566667Y-35588095D02*
X11000000Y-34288095D01*
X11433333Y-35588095D01*
D10*
D11*
X11092857Y-84907143D02*
X11278571Y-84969048D01*
X11340476Y-85030952D01*
X11402381Y-85154762D01*
X11402381Y-85340476D01*
X11340476Y-85464286D01*
X11278571Y-85526190D01*
X11154762Y-85588095D01*
X10659524Y-85588095D01*
X10659524Y-84288095D01*
X11092857Y-84288095D01*
X11216667Y-84350000D01*
X11278571Y-84411905D01*
X11340476Y-84535714D01*
X11340476Y-84659524D01*
X11278571Y-84783333D01*
X11216667Y-84845238D01*
X11092857Y-84907143D01*
X10659524Y-84907143D01*
D10*
D11*
X11402381Y-135464286D02*
X11340476Y-135526190D01*
X11154762Y-135588095D01*
X11030952Y-135588095D01*
X10845238Y-135526190D01*
X10721429Y-135402381D01*
X10659524Y-135278571D01*
X10597619Y-135030952D01*
X10597619Y-134845238D01*
X10659524Y-134597619D01*
X10721429Y-134473810D01*
X10845238Y-134350000D01*
X11030952Y-134288095D01*
X11154762Y-134288095D01*
X11340476Y-134350000D01*
X11402381Y-134411905D01*
D10*
D11*
X10659524Y-185588095D02*
X10659524Y-184288095D01*
X10969048Y-184288095D01*
X11154762Y-184350000D01*
X11278571Y-184473810D01*
X11340476Y-184597619D01*
X11402381Y-184845238D01*
X11402381Y-185030952D01*
X11340476Y-185278571D01*
X11278571Y-185402381D01*
X11154762Y-185526190D01*
X10969048Y-185588095D01*
X10659524Y-185588095D01*
D10*
D11*
X287002200Y-60000000D02*
X285002200Y-60000000D01*
D10*
D11*
X287002200Y-110000000D02*
X285002200Y-110000000D01*
D10*
D11*
X287002200Y-160000000D02*
X285002200Y-160000000D01*
D10*
D11*
X285692676Y-35216667D02*
X286311724Y-35216667D01*
X285568867Y-35588095D02*
X286002200Y-34288095D01*
X286435533Y-35588095D01*
D10*
D11*
X286095057Y-84907143D02*
X286280771Y-84969048D01*
X286342676Y-85030952D01*
X286404581Y-85154762D01*
X286404581Y-85340476D01*
X286342676Y-85464286D01*
X286280771Y-85526190D01*
X286156962Y-85588095D01*
X285661724Y-85588095D01*
X285661724Y-84288095D01*
X286095057Y-84288095D01*
X286218867Y-84350000D01*
X286280771Y-84411905D01*
X286342676Y-84535714D01*
X286342676Y-84659524D01*
X286280771Y-84783333D01*
X286218867Y-84845238D01*
X286095057Y-84907143D01*
X285661724Y-84907143D01*
D10*
D11*
X286404581Y-135464286D02*
X286342676Y-135526190D01*
X286156962Y-135588095D01*
X286033152Y-135588095D01*
X285847438Y-135526190D01*
X285723629Y-135402381D01*
X285661724Y-135278571D01*
X285599819Y-135030952D01*
X285599819Y-134845238D01*
X285661724Y-134597619D01*
X285723629Y-134473810D01*
X285847438Y-134350000D01*
X286033152Y-134288095D01*
X286156962Y-134288095D01*
X286342676Y-134350000D01*
X286404581Y-134411905D01*
D10*
D11*
X285661724Y-185588095D02*
X285661724Y-184288095D01*
X285971248Y-184288095D01*
X286156962Y-184350000D01*
X286280771Y-184473810D01*
X286342676Y-184597619D01*
X286404581Y-184845238D01*
X286404581Y-185030952D01*
X286342676Y-185278571D01*
X286280771Y-185402381D01*
X286156962Y-185526190D01*
X285971248Y-185588095D01*
X285661724Y-185588095D01*
D10*
D11*
X200359343Y-193785771D02*
X200359343Y-192285771D01*
X200716486Y-192285771D01*
X200930771Y-192357200D01*
X201073629Y-192500057D01*
X201145057Y-192642914D01*
X201216486Y-192928629D01*
X201216486Y-193142914D01*
X201145057Y-193428629D01*
X201073629Y-193571486D01*
X200930771Y-193714343D01*
X200716486Y-193785771D01*
X200359343Y-193785771D01*
X202502200Y-193785771D02*
X202502200Y-193000057D01*
X202430771Y-192857200D01*
X202287914Y-192785771D01*
X202002200Y-192785771D01*
X201859343Y-192857200D01*
X202502200Y-193714343D02*
X202359343Y-193785771D01*
X202002200Y-193785771D01*
X201859343Y-193714343D01*
X201787914Y-193571486D01*
X201787914Y-193428629D01*
X201859343Y-193285771D01*
X202002200Y-193214343D01*
X202359343Y-193214343D01*
X202502200Y-193142914D01*
X203002200Y-192785771D02*
X203573629Y-192785771D01*
X203216486Y-192285771D02*
X203216486Y-193571486D01*
X203287914Y-193714343D01*
X203430772Y-193785771D01*
X203573629Y-193785771D01*
X204645057Y-193714343D02*
X204502200Y-193785771D01*
X204216486Y-193785771D01*
X204073629Y-193714343D01*
X204002200Y-193571486D01*
X204002200Y-193000057D01*
X204073629Y-192857200D01*
X204216486Y-192785771D01*
X204502200Y-192785771D01*
X204645057Y-192857200D01*
X204716486Y-193000057D01*
X204716486Y-193142914D01*
X204002200Y-193285771D01*
X205359343Y-193642914D02*
X205430771Y-193714343D01*
X205359343Y-193785771D01*
X205287914Y-193714343D01*
X205359343Y-193642914D01*
X205359343Y-193785771D01*
X205359343Y-192857200D02*
X205430771Y-192928629D01*
X205359343Y-193000057D01*
X205287914Y-192928629D01*
X205359343Y-192857200D01*
X205359343Y-193000057D01*
D10*
D11*
X177002200Y-194507200D02*
X285002200Y-194507200D01*
D10*
D11*
X178359343Y-196585771D02*
X178359343Y-195085771D01*
X179216486Y-196585771D02*
X178573629Y-195728629D01*
X179216486Y-195085771D02*
X178359343Y-195942914D01*
X179859343Y-196585771D02*
X179859343Y-195585771D01*
X179859343Y-195085771D02*
X179787914Y-195157200D01*
X179859343Y-195228629D01*
X179930771Y-195157200D01*
X179859343Y-195085771D01*
X179859343Y-195228629D01*
X181430772Y-196442914D02*
X181359343Y-196514343D01*
X181145057Y-196585771D01*
X181002200Y-196585771D01*
X180787915Y-196514343D01*
X180645057Y-196371486D01*
X180573629Y-196228629D01*
X180502200Y-195942914D01*
X180502200Y-195728629D01*
X180573629Y-195442914D01*
X180645057Y-195300057D01*
X180787915Y-195157200D01*
X181002200Y-195085771D01*
X181145057Y-195085771D01*
X181359343Y-195157200D01*
X181430772Y-195228629D01*
X182716486Y-196585771D02*
X182716486Y-195800057D01*
X182645057Y-195657200D01*
X182502200Y-195585771D01*
X182216486Y-195585771D01*
X182073629Y-195657200D01*
X182716486Y-196514343D02*
X182573629Y-196585771D01*
X182216486Y-196585771D01*
X182073629Y-196514343D01*
X182002200Y-196371486D01*
X182002200Y-196228629D01*
X182073629Y-196085771D01*
X182216486Y-196014343D01*
X182573629Y-196014343D01*
X182716486Y-195942914D01*
X184073629Y-196585771D02*
X184073629Y-195085771D01*
X184073629Y-196514343D02*
X183930772Y-196585771D01*
X183645058Y-196585771D01*
X183502200Y-196514343D01*
X183430772Y-196442914D01*
X183359343Y-196300057D01*
X183359343Y-195871486D01*
X183430772Y-195728629D01*
X183502200Y-195657200D01*
X183645058Y-195585771D01*
X183930772Y-195585771D01*
X184073629Y-195657200D01*
X185930772Y-195800057D02*
X186430772Y-195800057D01*
X186645058Y-196585771D02*
X185930772Y-196585771D01*
X185930772Y-195085771D01*
X186645058Y-195085771D01*
X187287915Y-196442914D02*
X187359343Y-196514343D01*
X187287915Y-196585771D01*
X187216486Y-196514343D01*
X187287915Y-196442914D01*
X187287915Y-196585771D01*
X188002201Y-196585771D02*
X188002201Y-195085771D01*
X188359344Y-195085771D01*
X188573629Y-195157200D01*
X188716487Y-195300057D01*
X188787915Y-195442914D01*
X188859344Y-195728629D01*
X188859344Y-195942914D01*
X188787915Y-196228629D01*
X188716487Y-196371486D01*
X188573629Y-196514343D01*
X188359344Y-196585771D01*
X188002201Y-196585771D01*
X189502201Y-196442914D02*
X189573629Y-196514343D01*
X189502201Y-196585771D01*
X189430772Y-196514343D01*
X189502201Y-196442914D01*
X189502201Y-196585771D01*
X190145058Y-196157200D02*
X190859344Y-196157200D01*
X190002201Y-196585771D02*
X190502201Y-195085771D01*
X191002201Y-196585771D01*
X191502201Y-196442914D02*
X191573629Y-196514343D01*
X191502201Y-196585771D01*
X191430772Y-196514343D01*
X191502201Y-196442914D01*
X191502201Y-196585771D01*
X194502201Y-196585771D02*
X194502201Y-195085771D01*
X194645058Y-196014343D02*
X195073629Y-196585771D01*
X195073629Y-195585771D02*
X194502201Y-196157200D01*
X195716487Y-196585771D02*
X195716487Y-195585771D01*
X195716487Y-195085771D02*
X195645058Y-195157200D01*
X195716487Y-195228629D01*
X195787915Y-195157200D01*
X195716487Y-195085771D01*
X195716487Y-195228629D01*
X197073630Y-196514343D02*
X196930773Y-196585771D01*
X196645059Y-196585771D01*
X196502201Y-196514343D01*
X196430773Y-196442914D01*
X196359344Y-196300057D01*
X196359344Y-195871486D01*
X196430773Y-195728629D01*
X196502201Y-195657200D01*
X196645059Y-195585771D01*
X196930773Y-195585771D01*
X197073630Y-195657200D01*
X198359344Y-196585771D02*
X198359344Y-195800057D01*
X198287915Y-195657200D01*
X198145058Y-195585771D01*
X197859344Y-195585771D01*
X197716487Y-195657200D01*
X198359344Y-196514343D02*
X198216487Y-196585771D01*
X197859344Y-196585771D01*
X197716487Y-196514343D01*
X197645058Y-196371486D01*
X197645058Y-196228629D01*
X197716487Y-196085771D01*
X197859344Y-196014343D01*
X198216487Y-196014343D01*
X198359344Y-195942914D01*
X199716487Y-196585771D02*
X199716487Y-195085771D01*
X199716487Y-196514343D02*
X199573630Y-196585771D01*
X199287916Y-196585771D01*
X199145058Y-196514343D01*
X199073630Y-196442914D01*
X199002201Y-196300057D01*
X199002201Y-195871486D01*
X199073630Y-195728629D01*
X199145058Y-195657200D01*
X199287916Y-195585771D01*
X199573630Y-195585771D01*
X199716487Y-195657200D01*
X202216487Y-195585771D02*
X202216487Y-196585771D01*
X201859344Y-195014343D02*
X201502201Y-196085771D01*
X202430773Y-196085771D01*
X203002201Y-196442914D02*
X203073629Y-196514343D01*
X203002201Y-196585771D01*
X202930772Y-196514343D01*
X203002201Y-196442914D01*
X203002201Y-196585771D01*
X204002201Y-195085771D02*
X204145058Y-195085771D01*
X204287915Y-195157200D01*
X204359344Y-195228629D01*
X204430773Y-195371486D01*
X204502201Y-195657200D01*
X204502201Y-196014343D01*
X204430773Y-196300057D01*
X204359344Y-196442914D01*
X204287915Y-196514343D01*
X204145058Y-196585771D01*
X204002201Y-196585771D01*
X203859344Y-196514343D01*
X203787915Y-196442914D01*
X203716487Y-196300057D01*
X203645058Y-196014343D01*
X203645058Y-195657200D01*
X203716487Y-195371486D01*
X203787915Y-195228629D01*
X203859344Y-195157200D01*
X204002201Y-195085771D01*
X205145058Y-196442914D02*
X205216486Y-196514343D01*
X205145058Y-196585771D01*
X205073629Y-196514343D01*
X205145058Y-196442914D01*
X205145058Y-196585771D01*
X205787915Y-195228629D02*
X205859344Y-195157200D01*
X206002201Y-195085771D01*
X206359344Y-195085771D01*
X206502201Y-195157200D01*
X206573630Y-195228629D01*
X206645058Y-195371486D01*
X206645058Y-195514343D01*
X206573630Y-195728629D01*
X205716487Y-196585771D01*
X206645058Y-196585771D01*
X207287915Y-196014343D02*
X208430772Y-196014343D01*
X209073629Y-196514343D02*
X209216486Y-196585771D01*
X209502201Y-196585771D01*
X209645058Y-196514343D01*
X209716486Y-196371486D01*
X209716486Y-196300057D01*
X209645058Y-196157200D01*
X209502201Y-196085771D01*
X209287915Y-196085771D01*
X209145058Y-196014343D01*
X209073629Y-195871486D01*
X209073629Y-195800057D01*
X209145058Y-195657200D01*
X209287915Y-195585771D01*
X209502201Y-195585771D01*
X209645058Y-195657200D01*
X210145058Y-195585771D02*
X210716487Y-195585771D01*
X210359344Y-195085771D02*
X210359344Y-196371486D01*
X210430772Y-196514343D01*
X210573630Y-196585771D01*
X210716487Y-196585771D01*
X211859344Y-196585771D02*
X211859344Y-195800057D01*
X211787915Y-195657200D01*
X211645058Y-195585771D01*
X211359344Y-195585771D01*
X211216487Y-195657200D01*
X211859344Y-196514343D02*
X211716487Y-196585771D01*
X211359344Y-196585771D01*
X211216487Y-196514343D01*
X211145058Y-196371486D01*
X211145058Y-196228629D01*
X211216487Y-196085771D01*
X211359344Y-196014343D01*
X211716487Y-196014343D01*
X211859344Y-195942914D01*
X212573630Y-196585771D02*
X212573630Y-195085771D01*
X212573630Y-195657200D02*
X212716487Y-195585771D01*
X213002201Y-195585771D01*
X213145058Y-195657200D01*
X213216487Y-195728629D01*
X213287916Y-195871486D01*
X213287916Y-196300057D01*
X213216487Y-196442914D01*
X213145058Y-196514343D01*
X213002201Y-196585771D01*
X212716487Y-196585771D01*
X212573630Y-196514343D01*
X214145059Y-196585771D02*
X214002201Y-196514343D01*
X213930773Y-196371486D01*
X213930773Y-195085771D01*
X215287915Y-196514343D02*
X215145058Y-196585771D01*
X214859344Y-196585771D01*
X214716487Y-196514343D01*
X214645058Y-196371486D01*
X214645058Y-195800057D01*
X214716487Y-195657200D01*
X214859344Y-195585771D01*
X215145058Y-195585771D01*
X215287915Y-195657200D01*
X215359344Y-195800057D01*
X215359344Y-195942914D01*
X214645058Y-196085771D01*
D10*
D11*
X177002200Y-191507200D02*
X285002200Y-191507200D01*
D10*
D12*
X264216486Y-193785771D02*
X263716486Y-193071486D01*
X263359343Y-193785771D02*
X263359343Y-192285771D01*
X263930771Y-192285771D01*
X264073629Y-192357200D01*
X264145057Y-192428629D01*
X264216486Y-192571486D01*
X264216486Y-192785771D01*
X264145057Y-192928629D01*
X264073629Y-193000057D01*
X263930771Y-193071486D01*
X263359343Y-193071486D01*
X265430771Y-193714343D02*
X265287914Y-193785771D01*
X265002200Y-193785771D01*
X264859343Y-193714343D01*
X264787914Y-193571486D01*
X264787914Y-193000057D01*
X264859343Y-192857200D01*
X265002200Y-192785771D01*
X265287914Y-192785771D01*
X265430771Y-192857200D01*
X265502200Y-193000057D01*
X265502200Y-193142914D01*
X264787914Y-193285771D01*
X266002200Y-192785771D02*
X266359343Y-193785771D01*
X266716485Y-192785771D01*
X267287914Y-193642914D02*
X267359342Y-193714343D01*
X267287914Y-193785771D01*
X267216485Y-193714343D01*
X267287914Y-193642914D01*
X267287914Y-193785771D01*
X267287914Y-192857200D02*
X267359342Y-192928629D01*
X267287914Y-193000057D01*
X267216485Y-192928629D01*
X267287914Y-192857200D01*
X267287914Y-193000057D01*
D10*
D11*
X178287914Y-193714343D02*
X178502200Y-193785771D01*
X178859343Y-193785771D01*
X179002200Y-193714343D01*
X179073629Y-193642914D01*
X179145057Y-193500057D01*
X179145057Y-193357200D01*
X179073629Y-193214343D01*
X179002200Y-193142914D01*
X178859343Y-193071486D01*
X178573629Y-193000057D01*
X178430771Y-192928629D01*
X178359343Y-192857200D01*
X178287914Y-192714343D01*
X178287914Y-192571486D01*
X178359343Y-192428629D01*
X178430771Y-192357200D01*
X178573629Y-192285771D01*
X178930771Y-192285771D01*
X179145057Y-192357200D01*
X179787914Y-193785771D02*
X179787914Y-192785771D01*
X179787914Y-192285771D02*
X179716485Y-192357200D01*
X179787914Y-192428629D01*
X179859342Y-192357200D01*
X179787914Y-192285771D01*
X179787914Y-192428629D01*
X180359343Y-192785771D02*
X181145057Y-192785771D01*
X180359343Y-193785771D01*
X181145057Y-193785771D01*
X182287914Y-193714343D02*
X182145057Y-193785771D01*
X181859343Y-193785771D01*
X181716486Y-193714343D01*
X181645057Y-193571486D01*
X181645057Y-193000057D01*
X181716486Y-192857200D01*
X181859343Y-192785771D01*
X182145057Y-192785771D01*
X182287914Y-192857200D01*
X182359343Y-193000057D01*
X182359343Y-193142914D01*
X181645057Y-193285771D01*
X183002200Y-193642914D02*
X183073628Y-193714343D01*
X183002200Y-193785771D01*
X182930771Y-193714343D01*
X183002200Y-193642914D01*
X183002200Y-193785771D01*
X183002200Y-192857200D02*
X183073628Y-192928629D01*
X183002200Y-193000057D01*
X182930771Y-192928629D01*
X183002200Y-192857200D01*
X183002200Y-193000057D01*
X184787914Y-193357200D02*
X185502200Y-193357200D01*
X184645057Y-193785771D02*
X185145057Y-192285771D01*
X185645057Y-193785771D01*
X186787914Y-192785771D02*
X186787914Y-193785771D01*
X186430771Y-192214343D02*
X186073628Y-193285771D01*
X187002200Y-193285771D01*
D10*
D11*
X263359343Y-196585771D02*
X263359343Y-195085771D01*
X264716486Y-196585771D02*
X264716486Y-195085771D01*
X264716486Y-196514343D02*
X264573629Y-196585771D01*
X264287915Y-196585771D01*
X264145057Y-196514343D01*
X264073629Y-196442914D01*
X264002200Y-196300057D01*
X264002200Y-195871486D01*
X264073629Y-195728629D01*
X264145057Y-195657200D01*
X264287915Y-195585771D01*
X264573629Y-195585771D01*
X264716486Y-195657200D01*
X265430772Y-196442914D02*
X265502200Y-196514343D01*
X265430772Y-196585771D01*
X265359343Y-196514343D01*
X265430772Y-196442914D01*
X265430772Y-196585771D01*
X265430772Y-195657200D02*
X265502200Y-195728629D01*
X265430772Y-195800057D01*
X265359343Y-195728629D01*
X265430772Y-195657200D01*
X265430772Y-195800057D01*
X268073629Y-196585771D02*
X267216486Y-196585771D01*
X267645058Y-196585771D02*
X267645058Y-195085771D01*
X267502201Y-195300057D01*
X267359343Y-195442914D01*
X267216486Y-195514343D01*
X269787914Y-195014343D02*
X268502200Y-196942914D01*
X271073629Y-196585771D02*
X270216486Y-196585771D01*
X270645058Y-196585771D02*
X270645058Y-195085771D01*
X270502201Y-195300057D01*
X270359343Y-195442914D01*
X270216486Y-195514343D01*
D10*
D11*
X177002200Y-187507200D02*
X285002200Y-187507200D01*
D10*
D13*
X178454581Y-188211962D02*
X179597438Y-188211962D01*
X178776010Y-190211962D02*
X179026010Y-188211962D01*
X180014105Y-190211962D02*
X180180771Y-188878629D01*
X180264105Y-188211962D02*
X180156962Y-188307200D01*
X180240295Y-188402438D01*
X180347439Y-188307200D01*
X180264105Y-188211962D01*
X180240295Y-188402438D01*
X180847438Y-188878629D02*
X181609343Y-188878629D01*
X181216486Y-188211962D02*
X181002200Y-189926248D01*
X181073630Y-190116724D01*
X181252201Y-190211962D01*
X181442677Y-190211962D01*
X182395058Y-190211962D02*
X182216487Y-190116724D01*
X182145057Y-189926248D01*
X182359343Y-188211962D01*
X183930772Y-190116724D02*
X183728391Y-190211962D01*
X183347439Y-190211962D01*
X183168867Y-190116724D01*
X183097438Y-189926248D01*
X183192676Y-189164343D01*
X183311724Y-188973867D01*
X183514105Y-188878629D01*
X183895057Y-188878629D01*
X184073629Y-188973867D01*
X184145057Y-189164343D01*
X184121248Y-189354819D01*
X183145057Y-189545295D01*
X184895057Y-190021486D02*
X184978392Y-190116724D01*
X184871248Y-190211962D01*
X184787915Y-190116724D01*
X184895057Y-190021486D01*
X184871248Y-190211962D01*
X185026010Y-188973867D02*
X185109344Y-189069105D01*
X185002200Y-189164343D01*
X184918867Y-189069105D01*
X185026010Y-188973867D01*
X185002200Y-189164343D01*
D10*
D11*
X178859343Y-185600057D02*
X178359343Y-185600057D01*
X178359343Y-186385771D02*
X178359343Y-184885771D01*
X179073629Y-184885771D01*
X179645057Y-186385771D02*
X179645057Y-185385771D01*
X179645057Y-184885771D02*
X179573628Y-184957200D01*
X179645057Y-185028629D01*
X179716485Y-184957200D01*
X179645057Y-184885771D01*
X179645057Y-185028629D01*
X180573629Y-186385771D02*
X180430771Y-186314343D01*
X180359343Y-186171486D01*
X180359343Y-184885771D01*
X181716485Y-186314343D02*
X181573628Y-186385771D01*
X181287914Y-186385771D01*
X181145057Y-186314343D01*
X181073628Y-186171486D01*
X181073628Y-185600057D01*
X181145057Y-185457200D01*
X181287914Y-185385771D01*
X181573628Y-185385771D01*
X181716485Y-185457200D01*
X181787914Y-185600057D01*
X181787914Y-185742914D01*
X181073628Y-185885771D01*
X182430771Y-186242914D02*
X182502199Y-186314343D01*
X182430771Y-186385771D01*
X182359342Y-186314343D01*
X182430771Y-186242914D01*
X182430771Y-186385771D01*
X182430771Y-185457200D02*
X182502199Y-185528629D01*
X182430771Y-185600057D01*
X182359342Y-185528629D01*
X182430771Y-185457200D01*
X182430771Y-185600057D01*
X184073628Y-184885771D02*
X184573628Y-186385771D01*
X185073628Y-184885771D01*
X185573628Y-186385771D02*
X185573628Y-185385771D01*
X185573628Y-184885771D02*
X185502199Y-184957200D01*
X185573628Y-185028629D01*
X185645056Y-184957200D01*
X185573628Y-184885771D01*
X185573628Y-185028629D01*
X186287914Y-186385771D02*
X186287914Y-184885771D01*
X186287914Y-185457200D02*
X186430771Y-185385771D01*
X186716485Y-185385771D01*
X186859342Y-185457200D01*
X186930771Y-185528629D01*
X187002200Y-185671486D01*
X187002200Y-186100057D01*
X186930771Y-186242914D01*
X186859342Y-186314343D01*
X186716485Y-186385771D01*
X186430771Y-186385771D01*
X186287914Y-186314343D01*
X187645057Y-186385771D02*
X187645057Y-185385771D01*
X187645057Y-185671486D02*
X187716485Y-185528629D01*
X187787914Y-185457200D01*
X187930771Y-185385771D01*
X188073628Y-185385771D01*
X189216485Y-186385771D02*
X189216485Y-185600057D01*
X189145056Y-185457200D01*
X189002199Y-185385771D01*
X188716485Y-185385771D01*
X188573628Y-185457200D01*
X189216485Y-186314343D02*
X189073628Y-186385771D01*
X188716485Y-186385771D01*
X188573628Y-186314343D01*
X188502199Y-186171486D01*
X188502199Y-186028629D01*
X188573628Y-185885771D01*
X188716485Y-185814343D01*
X189073628Y-185814343D01*
X189216485Y-185742914D01*
X189716485Y-185385771D02*
X190287914Y-185385771D01*
X189930771Y-184885771D02*
X189930771Y-186171486D01*
X190002199Y-186314343D01*
X190145057Y-186385771D01*
X190287914Y-186385771D01*
X191002200Y-186385771D02*
X190859342Y-186314343D01*
X190787914Y-186242914D01*
X190716485Y-186100057D01*
X190716485Y-185671486D01*
X190787914Y-185528629D01*
X190859342Y-185457200D01*
X191002200Y-185385771D01*
X191216485Y-185385771D01*
X191359342Y-185457200D01*
X191430771Y-185528629D01*
X191502200Y-185671486D01*
X191502200Y-186100057D01*
X191430771Y-186242914D01*
X191359342Y-186314343D01*
X191216485Y-186385771D01*
X191002200Y-186385771D01*
X192145057Y-186385771D02*
X192145057Y-185385771D01*
X192145057Y-185671486D02*
X192216485Y-185528629D01*
X192287914Y-185457200D01*
X192430771Y-185385771D01*
X192573628Y-185385771D01*
X192716485Y-186528629D02*
X193859342Y-186528629D01*
X194930771Y-186385771D02*
X194216485Y-186385771D01*
X194216485Y-184885771D01*
X196002199Y-186314343D02*
X195859342Y-186385771D01*
X195573628Y-186385771D01*
X195430771Y-186314343D01*
X195359342Y-186171486D01*
X195359342Y-185600057D01*
X195430771Y-185457200D01*
X195573628Y-185385771D01*
X195859342Y-185385771D01*
X196002199Y-185457200D01*
X196073628Y-185600057D01*
X196073628Y-185742914D01*
X195359342Y-185885771D01*
X197359342Y-186385771D02*
X197359342Y-185600057D01*
X197287913Y-185457200D01*
X197145056Y-185385771D01*
X196859342Y-185385771D01*
X196716485Y-185457200D01*
X197359342Y-186314343D02*
X197216485Y-186385771D01*
X196859342Y-186385771D01*
X196716485Y-186314343D01*
X196645056Y-186171486D01*
X196645056Y-186028629D01*
X196716485Y-185885771D01*
X196859342Y-185814343D01*
X197216485Y-185814343D01*
X197359342Y-185742914D01*
X197859342Y-185385771D02*
X198430771Y-185385771D01*
X198073628Y-184885771D02*
X198073628Y-186171486D01*
X198145056Y-186314343D01*
X198287914Y-186385771D01*
X198430771Y-186385771D01*
X198930771Y-186385771D02*
X198930771Y-184885771D01*
X199573628Y-186385771D02*
X199573628Y-185600057D01*
X199502199Y-185457200D01*
X199359342Y-185385771D01*
X199145057Y-185385771D01*
X199002199Y-185457200D01*
X198930771Y-185528629D01*
X200859342Y-186314343D02*
X200716485Y-186385771D01*
X200430771Y-186385771D01*
X200287914Y-186314343D01*
X200216485Y-186171486D01*
X200216485Y-185600057D01*
X200287914Y-185457200D01*
X200430771Y-185385771D01*
X200716485Y-185385771D01*
X200859342Y-185457200D01*
X200930771Y-185600057D01*
X200930771Y-185742914D01*
X200216485Y-185885771D01*
X201573628Y-186385771D02*
X201573628Y-185385771D01*
X201573628Y-185671486D02*
X201645056Y-185528629D01*
X201716485Y-185457200D01*
X201859342Y-185385771D01*
X202002199Y-185385771D01*
X202145056Y-186528629D02*
X203287913Y-186528629D01*
X204145056Y-185600057D02*
X204359342Y-185671486D01*
X204430770Y-185742914D01*
X204502199Y-185885771D01*
X204502199Y-186100057D01*
X204430770Y-186242914D01*
X204359342Y-186314343D01*
X204216484Y-186385771D01*
X203645056Y-186385771D01*
X203645056Y-184885771D01*
X204145056Y-184885771D01*
X204287913Y-184957200D01*
X204359342Y-185028629D01*
X204430770Y-185171486D01*
X204430770Y-185314343D01*
X204359342Y-185457200D01*
X204287913Y-185528629D01*
X204145056Y-185600057D01*
X203645056Y-185600057D01*
X205716484Y-186314343D02*
X205573627Y-186385771D01*
X205287913Y-186385771D01*
X205145056Y-186314343D01*
X205073627Y-186171486D01*
X205073627Y-185600057D01*
X205145056Y-185457200D01*
X205287913Y-185385771D01*
X205573627Y-185385771D01*
X205716484Y-185457200D01*
X205787913Y-185600057D01*
X205787913Y-185742914D01*
X205073627Y-185885771D01*
X206645056Y-186385771D02*
X206502198Y-186314343D01*
X206430770Y-186171486D01*
X206430770Y-184885771D01*
X207002198Y-185385771D02*
X207573627Y-185385771D01*
X207216484Y-184885771D02*
X207216484Y-186171486D01*
X207287912Y-186314343D01*
X207430770Y-186385771D01*
X207573627Y-186385771D01*
X207716484Y-186528629D02*
X208859341Y-186528629D01*
X209859341Y-186314343D02*
X209716484Y-186385771D01*
X209430770Y-186385771D01*
X209287912Y-186314343D01*
X209216484Y-186242914D01*
X209145055Y-186100057D01*
X209145055Y-185671486D01*
X209216484Y-185528629D01*
X209287912Y-185457200D01*
X209430770Y-185385771D01*
X209716484Y-185385771D01*
X209859341Y-185457200D01*
X210716484Y-186385771D02*
X210573626Y-186314343D01*
X210502198Y-186242914D01*
X210430769Y-186100057D01*
X210430769Y-185671486D01*
X210502198Y-185528629D01*
X210573626Y-185457200D01*
X210716484Y-185385771D01*
X210930769Y-185385771D01*
X211073626Y-185457200D01*
X211145055Y-185528629D01*
X211216484Y-185671486D01*
X211216484Y-186100057D01*
X211145055Y-186242914D01*
X211073626Y-186314343D01*
X210930769Y-186385771D01*
X210716484Y-186385771D01*
X211859341Y-185385771D02*
X211859341Y-186385771D01*
X211859341Y-185528629D02*
X211930769Y-185457200D01*
X212073627Y-185385771D01*
X212287912Y-185385771D01*
X212430769Y-185457200D01*
X212502198Y-185600057D01*
X212502198Y-186385771D01*
X213002198Y-185385771D02*
X213573627Y-185385771D01*
X213216484Y-184885771D02*
X213216484Y-186171486D01*
X213287912Y-186314343D01*
X213430770Y-186385771D01*
X213573627Y-186385771D01*
X214073627Y-186385771D02*
X214073627Y-185385771D01*
X214073627Y-185671486D02*
X214145055Y-185528629D01*
X214216484Y-185457200D01*
X214359341Y-185385771D01*
X214502198Y-185385771D01*
X215216484Y-186385771D02*
X215073626Y-186314343D01*
X215002198Y-186242914D01*
X214930769Y-186100057D01*
X214930769Y-185671486D01*
X215002198Y-185528629D01*
X215073626Y-185457200D01*
X215216484Y-185385771D01*
X215430769Y-185385771D01*
X215573626Y-185457200D01*
X215645055Y-185528629D01*
X215716484Y-185671486D01*
X215716484Y-186100057D01*
X215645055Y-186242914D01*
X215573626Y-186314343D01*
X215430769Y-186385771D01*
X215216484Y-186385771D01*
X216573627Y-186385771D02*
X216430769Y-186314343D01*
X216359341Y-186171486D01*
X216359341Y-184885771D01*
X216787912Y-186528629D02*
X217930769Y-186528629D01*
X218787912Y-185600057D02*
X219002198Y-185671486D01*
X219073626Y-185742914D01*
X219145055Y-185885771D01*
X219145055Y-186100057D01*
X219073626Y-186242914D01*
X219002198Y-186314343D01*
X218859340Y-186385771D01*
X218287912Y-186385771D01*
X218287912Y-184885771D01*
X218787912Y-184885771D01*
X218930769Y-184957200D01*
X219002198Y-185028629D01*
X219073626Y-185171486D01*
X219073626Y-185314343D01*
X219002198Y-185457200D01*
X218930769Y-185528629D01*
X218787912Y-185600057D01*
X218287912Y-185600057D01*
X220002198Y-186385771D02*
X219859340Y-186314343D01*
X219787912Y-186242914D01*
X219716483Y-186100057D01*
X219716483Y-185671486D01*
X219787912Y-185528629D01*
X219859340Y-185457200D01*
X220002198Y-185385771D01*
X220216483Y-185385771D01*
X220359340Y-185457200D01*
X220430769Y-185528629D01*
X220502198Y-185671486D01*
X220502198Y-186100057D01*
X220430769Y-186242914D01*
X220359340Y-186314343D01*
X220216483Y-186385771D01*
X220002198Y-186385771D01*
X221002198Y-186385771D02*
X221787912Y-185385771D01*
X221002198Y-185385771D02*
X221787912Y-186385771D01*
X222359341Y-186242914D02*
X222430769Y-186314343D01*
X222359341Y-186385771D01*
X222287912Y-186314343D01*
X222359341Y-186242914D01*
X222359341Y-186385771D01*
X223073627Y-186385771D02*
X223073627Y-184885771D01*
X223216484Y-185814343D02*
X223645055Y-186385771D01*
X223645055Y-185385771D02*
X223073627Y-185957200D01*
X224287913Y-186385771D02*
X224287913Y-185385771D01*
X224287913Y-184885771D02*
X224216484Y-184957200D01*
X224287913Y-185028629D01*
X224359341Y-184957200D01*
X224287913Y-184885771D01*
X224287913Y-185028629D01*
X225645056Y-186314343D02*
X225502199Y-186385771D01*
X225216485Y-186385771D01*
X225073627Y-186314343D01*
X225002199Y-186242914D01*
X224930770Y-186100057D01*
X224930770Y-185671486D01*
X225002199Y-185528629D01*
X225073627Y-185457200D01*
X225216485Y-185385771D01*
X225502199Y-185385771D01*
X225645056Y-185457200D01*
X226930770Y-186385771D02*
X226930770Y-185600057D01*
X226859341Y-185457200D01*
X226716484Y-185385771D01*
X226430770Y-185385771D01*
X226287913Y-185457200D01*
X226930770Y-186314343D02*
X226787913Y-186385771D01*
X226430770Y-186385771D01*
X226287913Y-186314343D01*
X226216484Y-186171486D01*
X226216484Y-186028629D01*
X226287913Y-185885771D01*
X226430770Y-185814343D01*
X226787913Y-185814343D01*
X226930770Y-185742914D01*
X228287913Y-186385771D02*
X228287913Y-184885771D01*
X228287913Y-186314343D02*
X228145056Y-186385771D01*
X227859342Y-186385771D01*
X227716484Y-186314343D01*
X227645056Y-186242914D01*
X227573627Y-186100057D01*
X227573627Y-185671486D01*
X227645056Y-185528629D01*
X227716484Y-185457200D01*
X227859342Y-185385771D01*
X228145056Y-185385771D01*
X228287913Y-185457200D01*
X228645056Y-186528629D02*
X229787913Y-186528629D01*
X230145056Y-185385771D02*
X230145056Y-186885771D01*
X230145056Y-185457200D02*
X230287913Y-185385771D01*
X230573627Y-185385771D01*
X230716484Y-185457200D01*
X230787913Y-185528629D01*
X230859342Y-185671486D01*
X230859342Y-186100057D01*
X230787913Y-186242914D01*
X230716484Y-186314343D01*
X230573627Y-186385771D01*
X230287913Y-186385771D01*
X230145056Y-186314343D01*
X232145056Y-186314343D02*
X232002199Y-186385771D01*
X231716485Y-186385771D01*
X231573627Y-186314343D01*
X231502199Y-186242914D01*
X231430770Y-186100057D01*
X231430770Y-185671486D01*
X231502199Y-185528629D01*
X231573627Y-185457200D01*
X231716485Y-185385771D01*
X232002199Y-185385771D01*
X232145056Y-185457200D01*
X232787913Y-186385771D02*
X232787913Y-184885771D01*
X232787913Y-185457200D02*
X232930770Y-185385771D01*
X233216484Y-185385771D01*
X233359341Y-185457200D01*
X233430770Y-185528629D01*
X233502199Y-185671486D01*
X233502199Y-186100057D01*
X233430770Y-186242914D01*
X233359341Y-186314343D01*
X233216484Y-186385771D01*
X232930770Y-186385771D01*
X232787913Y-186314343D01*
D10*
D11*
X177002200Y-181507200D02*
X285002200Y-181507200D01*
D10*
D11*
X178287914Y-183614343D02*
X178502200Y-183685771D01*
X178859343Y-183685771D01*
X179002200Y-183614343D01*
X179073629Y-183542914D01*
X179145057Y-183400057D01*
X179145057Y-183257200D01*
X179073629Y-183114343D01*
X179002200Y-183042914D01*
X178859343Y-182971486D01*
X178573629Y-182900057D01*
X178430771Y-182828629D01*
X178359343Y-182757200D01*
X178287914Y-182614343D01*
X178287914Y-182471486D01*
X178359343Y-182328629D01*
X178430771Y-182257200D01*
X178573629Y-182185771D01*
X178930771Y-182185771D01*
X179145057Y-182257200D01*
X179787914Y-183685771D02*
X179787914Y-182185771D01*
X180430771Y-183685771D02*
X180430771Y-182900057D01*
X180359342Y-182757200D01*
X180216485Y-182685771D01*
X180002200Y-182685771D01*
X179859342Y-182757200D01*
X179787914Y-182828629D01*
X181716485Y-183614343D02*
X181573628Y-183685771D01*
X181287914Y-183685771D01*
X181145057Y-183614343D01*
X181073628Y-183471486D01*
X181073628Y-182900057D01*
X181145057Y-182757200D01*
X181287914Y-182685771D01*
X181573628Y-182685771D01*
X181716485Y-182757200D01*
X181787914Y-182900057D01*
X181787914Y-183042914D01*
X181073628Y-183185771D01*
X183002199Y-183614343D02*
X182859342Y-183685771D01*
X182573628Y-183685771D01*
X182430771Y-183614343D01*
X182359342Y-183471486D01*
X182359342Y-182900057D01*
X182430771Y-182757200D01*
X182573628Y-182685771D01*
X182859342Y-182685771D01*
X183002199Y-182757200D01*
X183073628Y-182900057D01*
X183073628Y-183042914D01*
X182359342Y-183185771D01*
X183502199Y-182685771D02*
X184073628Y-182685771D01*
X183716485Y-182185771D02*
X183716485Y-183471486D01*
X183787913Y-183614343D01*
X183930771Y-183685771D01*
X184073628Y-183685771D01*
X184573628Y-183542914D02*
X184645056Y-183614343D01*
X184573628Y-183685771D01*
X184502199Y-183614343D01*
X184573628Y-183542914D01*
X184573628Y-183685771D01*
X184573628Y-182757200D02*
X184645056Y-182828629D01*
X184573628Y-182900057D01*
X184502199Y-182828629D01*
X184573628Y-182757200D01*
X184573628Y-182900057D01*
D10*
D11*
X197002200Y-191507200D02*
X197002200Y-194507200D01*
D10*
D11*
X261002200Y-191507200D02*
X261002200Y-198007200D01*
D14*
X110000000Y-77000000D02*
X110000000Y-73050000D01*
D12*
X78407143Y-60400000D02*
X78407143Y-59257143D01*
X78407143Y-58542857D02*
X78407143Y-57400000D01*
X78978571Y-57971429D02*
X77835714Y-57971429D01*
D14*
X105000000Y-56000000D02*
X107000000Y-56000000D01*
X105000000Y-54000000D02*
X105000000Y-56000000D01*
X96000000Y-56000000D02*
X91000000Y-56000000D01*
X96000000Y-54000000D02*
X96000000Y-56000000D01*
X66000000Y-89000000D02*
X59800000Y-89000000D01*
X56800000Y-59000000D02*
X54000000Y-59000000D01*
X69000000Y-56000000D02*
X82000000Y-56000000D01*
X59800000Y-56000000D02*
X60000000Y-56000000D01*
X91000000Y-54000000D02*
X91000000Y-56000000D01*
X82000000Y-54000000D02*
X82000000Y-56000000D01*
X69000000Y-54000000D02*
X69000000Y-56000000D01*
X60000000Y-54000000D02*
X60000000Y-56000000D01*
X110000000Y-77000000D02*
X110000000Y-85900000D01*
X66000000Y-89000000D02*
X107000000Y-89000000D01*
X111000000Y-72000000D02*
G75*
G03X111000000Y-72000000I-1000000J0D01*
G01*
X59800000Y-89000000D02*
G75*
G03X56800000Y-86000000I-3000000J0D01*
G01*
X56800000Y-59000000D02*
G75*
G03X59800000Y-56000000I0J3000000D01*
G01*
X110000000Y-59000000D02*
X110000000Y-67000000D01*
X107000000Y-56000000D02*
G75*
G03X110000000Y-59000000I3000000J0D01*
G01*
X110000000Y-86000000D02*
G75*
G03X107000000Y-89000000I0J-3000000D01*
G01*
D11*
X58900000Y-77625000D02*
X59900000Y-77625000D01*
X59900000Y-78975000D02*
X58900000Y-78975000D01*
D15*
X67200000Y-54300000D02*
X68100000Y-54300000D01*
X66100000Y-54300000D02*
X66800000Y-54300000D01*
X61600000Y-54300000D02*
X60800000Y-54300000D01*
X62600000Y-54300000D02*
X62000000Y-54300000D01*
X65700000Y-54300000D02*
X63000000Y-54300000D01*
X60700000Y-53600000D02*
X60300000Y-53200000D01*
X68200000Y-53600000D02*
X68600000Y-53200000D01*
X60700000Y-53600000D02*
X60700000Y-58500000D01*
X67800000Y-53600000D02*
X67800000Y-53200000D01*
X67800000Y-53200000D02*
X61000000Y-53200000D01*
X61000000Y-53200000D02*
X61000000Y-53600000D01*
X60800000Y-58500000D02*
X68000000Y-58500000D01*
X68125000Y-58500000D02*
X68125000Y-53600000D01*
X68000000Y-53600000D02*
X60800000Y-53600000D01*
X81300000Y-56900000D02*
X79300000Y-56900000D01*
X79300000Y-56900000D02*
X79300000Y-60900000D01*
X79300000Y-60900000D02*
X81300000Y-60900000D01*
X81300000Y-60900000D02*
X81300000Y-56900000D01*
D11*
X87125000Y-66600000D02*
X87125000Y-65400000D01*
X88875000Y-65400000D02*
X88875000Y-66600000D01*
X78425000Y-67100000D02*
X78425000Y-66100000D01*
X79775000Y-66100000D02*
X79775000Y-67100000D01*
X92075000Y-85600000D02*
X92075000Y-86600000D01*
X90725000Y-86600000D02*
X90725000Y-85600000D01*
X58100000Y-73425000D02*
X59100000Y-73425000D01*
X59100000Y-74775000D02*
X58100000Y-74775000D01*
X73600000Y-64875000D02*
X72400000Y-64875000D01*
X72400000Y-63125000D02*
X73600000Y-63125000D01*
X98525000Y-66000000D02*
X98525000Y-65000000D01*
X99875000Y-65000000D02*
X99875000Y-66000000D01*
X64625000Y-82400000D02*
X64625000Y-81400000D01*
X65975000Y-81400000D02*
X65975000Y-82400000D01*
X63000000Y-87675000D02*
X62000000Y-87675000D01*
X62000000Y-86325000D02*
X63000000Y-86325000D01*
X76500000Y-58182500D02*
X76500000Y-57801500D01*
X76500000Y-59198500D02*
X76500000Y-58817500D01*
X76500000Y-58817500D02*
X76119000Y-58182500D01*
X76119000Y-58182500D02*
X76881000Y-58182500D01*
X76881000Y-58182500D02*
X76500000Y-58817500D01*
X75992000Y-58817500D02*
X77008000Y-58817500D01*
X77400000Y-60500000D02*
X77400000Y-56960000D01*
X75600000Y-60500000D02*
X75600000Y-56960000D01*
D15*
X70200000Y-56400000D02*
X70200000Y-56700000D01*
X70600000Y-56400000D02*
X69800000Y-56400000D01*
X86100000Y-83600000D02*
X86100000Y-83900000D01*
X86500000Y-83600000D02*
X85700000Y-83600000D01*
X72000000Y-83500000D02*
X72000000Y-83800000D01*
X72400000Y-83500000D02*
X71600000Y-83500000D01*
D11*
X81600000Y-67100000D02*
G75*
G03X81600000Y-67100000I-100000J0D01*
G01*
X81750000Y-66450000D02*
X81750000Y-66950000D01*
X84650000Y-66450000D02*
X81750000Y-66450000D01*
X84650000Y-66950000D02*
X84650000Y-66450000D01*
X81750000Y-66950000D02*
X84650000Y-66950000D01*
D15*
X59300000Y-83850000D02*
G75*
G03X59300000Y-83850000I-150000J0D01*
G01*
X61500000Y-84500000D02*
X61500000Y-81500000D01*
X61500000Y-81500000D02*
X58500000Y-81500000D01*
X58500000Y-81500000D02*
X58500000Y-84500000D01*
X58500000Y-84500000D02*
X61500000Y-84500000D01*
D11*
X107020000Y-63730000D02*
X107020000Y-58650000D01*
X107300000Y-66550000D02*
X105750000Y-66550000D01*
X104480000Y-66270000D02*
X104480000Y-63730000D01*
X104480000Y-63730000D02*
X107020000Y-63730000D01*
X107020000Y-58650000D02*
X101940000Y-58650000D01*
X101940000Y-58650000D02*
X101940000Y-63730000D01*
X107300000Y-66550000D02*
X107300000Y-65000000D01*
X101940000Y-66270000D02*
X104480000Y-66270000D01*
X101940000Y-63730000D02*
X101940000Y-66270000D01*
X78449200Y-75500180D02*
X79150240Y-75500180D01*
X79150240Y-75500180D02*
X79150240Y-75749100D01*
X79150240Y-78299160D02*
X79150240Y-78499820D01*
X79150240Y-78499820D02*
X78449200Y-78499820D01*
X72725000Y-58700000D02*
X72725000Y-57700000D01*
X74075000Y-57700000D02*
X74075000Y-58700000D01*
X63525000Y-63600000D02*
X63525000Y-62600000D01*
X64875000Y-62600000D02*
X64875000Y-63600000D01*
X60425000Y-63600000D02*
X60425000Y-62600000D01*
X61775000Y-62600000D02*
X61775000Y-63600000D01*
X84800000Y-79725000D02*
X85800000Y-79725000D01*
X85800000Y-81075000D02*
X84800000Y-81075000D01*
X66325000Y-63600000D02*
X66325000Y-62600000D01*
X67675000Y-62600000D02*
X67675000Y-63600000D01*
X86000000Y-77675000D02*
X85000000Y-77675000D01*
X85000000Y-76325000D02*
X86000000Y-76325000D01*
X86000000Y-76175000D02*
X85000000Y-76175000D01*
X85000000Y-74825000D02*
X86000000Y-74825000D01*
X77975000Y-85600000D02*
X77975000Y-86600000D01*
X76625000Y-86600000D02*
X76625000Y-85600000D01*
X101375000Y-85700000D02*
X101375000Y-86700000D01*
X100025000Y-86700000D02*
X100025000Y-85700000D01*
X96675000Y-85500000D02*
X96675000Y-86500000D01*
X95325000Y-86500000D02*
X95325000Y-85500000D01*
X74300000Y-81875000D02*
X73300000Y-81875000D01*
X73300000Y-80525000D02*
X74300000Y-80525000D01*
D15*
X87400000Y-54200000D02*
X87400000Y-52700000D01*
X87400000Y-52700000D02*
X85900000Y-52700000D01*
X85900000Y-52700000D02*
X85900000Y-54200000D01*
X83100000Y-54200000D02*
X89700000Y-54200000D01*
X89700000Y-54200000D02*
X89700000Y-57000000D01*
X89700000Y-57000000D02*
X83100000Y-57000000D01*
X83100000Y-54200000D02*
X83100000Y-56900000D01*
X100400000Y-52900000D02*
X99200000Y-52900000D01*
X99200000Y-52900000D02*
X99200000Y-54100000D01*
X100400000Y-52900000D02*
X101400000Y-52900000D01*
X101400000Y-52900000D02*
X101400000Y-54100000D01*
X97900000Y-56400000D02*
X97900000Y-54100000D01*
X102900000Y-54100000D02*
X102900000Y-56400000D01*
X102900000Y-54100000D02*
X97900000Y-54100000D01*
X102900000Y-56400000D02*
X97900000Y-56400000D01*
D11*
X58400000Y-67300000D02*
G75*
G03X58400000Y-67300000I-100000J0D01*
G01*
X58850000Y-67550000D02*
X58350000Y-67550000D01*
X58850000Y-70450000D02*
X58850000Y-67550000D01*
X58350000Y-70450000D02*
X58850000Y-70450000D01*
X58350000Y-67550000D02*
X58350000Y-70450000D01*
X103775000Y-69825000D02*
X103100000Y-69825000D01*
X103775000Y-80175000D02*
X103100000Y-80175000D01*
X93425000Y-80175000D02*
X94100000Y-80175000D01*
X93425000Y-69825000D02*
X94100000Y-69825000D01*
X103775000Y-69825000D02*
X103775000Y-70500000D01*
X93425000Y-69825000D02*
X93425000Y-70500000D01*
X93425000Y-80175000D02*
X93425000Y-79500000D01*
X103775000Y-80175000D02*
X103775000Y-79500000D01*
X103100000Y-69825000D02*
X103100000Y-68550000D01*
D15*
X105100000Y-83400000D02*
X105100000Y-83700000D01*
X105500000Y-83400000D02*
X104700000Y-83400000D01*
D16*
X73000000Y-66000000D02*
X73000000Y-76000000D01*
X73000000Y-76000000D02*
X68000000Y-76000000D01*
X68000000Y-76000000D02*
X68000000Y-66000000D01*
X68000000Y-66000000D02*
X73000000Y-66000000D01*
D11*
X57057143Y-78366666D02*
X57104762Y-78414285D01*
X57152381Y-78557142D01*
X57152381Y-78652380D01*
X57104762Y-78795238D01*
X57009524Y-78890476D01*
X56914286Y-78938095D01*
X56723810Y-78985714D01*
X56580952Y-78985714D01*
X56390476Y-78938095D01*
X56295238Y-78890476D01*
X56200000Y-78795238D01*
X56152381Y-78652380D01*
X56152381Y-78557142D01*
X56200000Y-78414285D01*
X56247619Y-78366666D01*
X57152381Y-77890476D02*
X57152381Y-77700000D01*
X57104762Y-77604761D01*
X57057143Y-77557142D01*
X56914286Y-77461904D01*
X56723810Y-77414285D01*
X56342857Y-77414285D01*
X56247619Y-77461904D01*
X56200000Y-77509523D01*
X56152381Y-77604761D01*
X56152381Y-77795238D01*
X56200000Y-77890476D01*
X56247619Y-77938095D01*
X56342857Y-77985714D01*
X56580952Y-77985714D01*
X56676190Y-77938095D01*
X56723810Y-77890476D01*
X56771429Y-77795238D01*
X56771429Y-77604761D01*
X56723810Y-77509523D01*
X56676190Y-77461904D01*
X56580952Y-77414285D01*
X63461905Y-52752381D02*
X63461905Y-51752381D01*
X63842858Y-51752381D01*
X63938096Y-51800000D01*
X63985715Y-51847619D01*
X64033334Y-51942857D01*
X64033334Y-52085714D01*
X63985715Y-52180952D01*
X63938096Y-52228571D01*
X63842858Y-52276190D01*
X63461905Y-52276190D01*
X64985715Y-52752381D02*
X64414286Y-52752381D01*
X64700000Y-52752381D02*
X64700000Y-51752381D01*
X64604762Y-51895238D01*
X64509524Y-51990476D01*
X64414286Y-52038095D01*
X78985715Y-55128571D02*
X79128572Y-55176190D01*
X79176191Y-55223810D01*
X79223810Y-55319048D01*
X79223810Y-55461905D01*
X79176191Y-55557143D01*
X79128572Y-55604762D01*
X79033334Y-55652381D01*
X78652381Y-55652381D01*
X78652381Y-54652381D01*
X78985715Y-54652381D01*
X79080953Y-54700000D01*
X79128572Y-54747619D01*
X79176191Y-54842857D01*
X79176191Y-54938095D01*
X79128572Y-55033333D01*
X79080953Y-55080952D01*
X78985715Y-55128571D01*
X78652381Y-55128571D01*
X79604762Y-55366667D02*
X80080953Y-55366667D01*
X79509524Y-55652381D02*
X79842857Y-54652381D01*
X80176191Y-55652381D01*
X80366667Y-54652381D02*
X80938096Y-54652381D01*
X80652381Y-55652381D02*
X80652381Y-54652381D01*
X81795239Y-55652381D02*
X81223810Y-55652381D01*
X81509524Y-55652381D02*
X81509524Y-54652381D01*
X81414286Y-54795238D01*
X81319048Y-54890476D01*
X81223810Y-54938095D01*
X87733334Y-63357143D02*
X87685715Y-63404762D01*
X87542858Y-63452381D01*
X87447620Y-63452381D01*
X87304762Y-63404762D01*
X87209524Y-63309524D01*
X87161905Y-63214286D01*
X87114286Y-63023810D01*
X87114286Y-62880952D01*
X87161905Y-62690476D01*
X87209524Y-62595238D01*
X87304762Y-62500000D01*
X87447620Y-62452381D01*
X87542858Y-62452381D01*
X87685715Y-62500000D01*
X87733334Y-62547619D01*
X88685715Y-63452381D02*
X88114286Y-63452381D01*
X88400000Y-63452381D02*
X88400000Y-62452381D01*
X88304762Y-62595238D01*
X88209524Y-62690476D01*
X88114286Y-62738095D01*
X78933334Y-64157143D02*
X78885715Y-64204762D01*
X78742858Y-64252381D01*
X78647620Y-64252381D01*
X78504762Y-64204762D01*
X78409524Y-64109524D01*
X78361905Y-64014286D01*
X78314286Y-63823810D01*
X78314286Y-63680952D01*
X78361905Y-63490476D01*
X78409524Y-63395238D01*
X78504762Y-63300000D01*
X78647620Y-63252381D01*
X78742858Y-63252381D01*
X78885715Y-63300000D01*
X78933334Y-63347619D01*
X79314286Y-63347619D02*
X79361905Y-63300000D01*
X79457143Y-63252381D01*
X79695239Y-63252381D01*
X79790477Y-63300000D01*
X79838096Y-63347619D01*
X79885715Y-63442857D01*
X79885715Y-63538095D01*
X79838096Y-63680952D01*
X79266667Y-64252381D01*
X79885715Y-64252381D01*
X90357143Y-84666666D02*
X90404762Y-84714285D01*
X90452381Y-84857142D01*
X90452381Y-84952380D01*
X90404762Y-85095238D01*
X90309524Y-85190476D01*
X90214286Y-85238095D01*
X90023810Y-85285714D01*
X89880952Y-85285714D01*
X89690476Y-85238095D01*
X89595238Y-85190476D01*
X89500000Y-85095238D01*
X89452381Y-84952380D01*
X89452381Y-84857142D01*
X89500000Y-84714285D01*
X89547619Y-84666666D01*
X89452381Y-84333333D02*
X89452381Y-83714285D01*
X89833333Y-84047619D01*
X89833333Y-83904761D01*
X89880952Y-83809523D01*
X89928571Y-83761904D01*
X90023810Y-83714285D01*
X90261905Y-83714285D01*
X90357143Y-83761904D01*
X90404762Y-83809523D01*
X90452381Y-83904761D01*
X90452381Y-84190476D01*
X90404762Y-84285714D01*
X90357143Y-84333333D01*
X56457143Y-74466666D02*
X56504762Y-74514285D01*
X56552381Y-74657142D01*
X56552381Y-74752380D01*
X56504762Y-74895238D01*
X56409524Y-74990476D01*
X56314286Y-75038095D01*
X56123810Y-75085714D01*
X55980952Y-75085714D01*
X55790476Y-75038095D01*
X55695238Y-74990476D01*
X55600000Y-74895238D01*
X55552381Y-74752380D01*
X55552381Y-74657142D01*
X55600000Y-74514285D01*
X55647619Y-74466666D01*
X55885714Y-73609523D02*
X56552381Y-73609523D01*
X55504762Y-73847619D02*
X56219048Y-74085714D01*
X56219048Y-73466666D01*
X70257143Y-64266666D02*
X70304762Y-64314285D01*
X70352381Y-64457142D01*
X70352381Y-64552380D01*
X70304762Y-64695238D01*
X70209524Y-64790476D01*
X70114286Y-64838095D01*
X69923810Y-64885714D01*
X69780952Y-64885714D01*
X69590476Y-64838095D01*
X69495238Y-64790476D01*
X69400000Y-64695238D01*
X69352381Y-64552380D01*
X69352381Y-64457142D01*
X69400000Y-64314285D01*
X69447619Y-64266666D01*
X69352381Y-63361904D02*
X69352381Y-63838095D01*
X69828571Y-63885714D01*
X69780952Y-63838095D01*
X69733333Y-63742857D01*
X69733333Y-63504761D01*
X69780952Y-63409523D01*
X69828571Y-63361904D01*
X69923810Y-63314285D01*
X70161905Y-63314285D01*
X70257143Y-63361904D01*
X70304762Y-63409523D01*
X70352381Y-63504761D01*
X70352381Y-63742857D01*
X70304762Y-63838095D01*
X70257143Y-63885714D01*
X99033334Y-68657143D02*
X98985715Y-68704762D01*
X98842858Y-68752381D01*
X98747620Y-68752381D01*
X98604762Y-68704762D01*
X98509524Y-68609524D01*
X98461905Y-68514286D01*
X98414286Y-68323810D01*
X98414286Y-68180952D01*
X98461905Y-67990476D01*
X98509524Y-67895238D01*
X98604762Y-67800000D01*
X98747620Y-67752381D01*
X98842858Y-67752381D01*
X98985715Y-67800000D01*
X99033334Y-67847619D01*
X99890477Y-67752381D02*
X99700000Y-67752381D01*
X99604762Y-67800000D01*
X99557143Y-67847619D01*
X99461905Y-67990476D01*
X99414286Y-68180952D01*
X99414286Y-68561905D01*
X99461905Y-68657143D01*
X99509524Y-68704762D01*
X99604762Y-68752381D01*
X99795239Y-68752381D01*
X99890477Y-68704762D01*
X99938096Y-68657143D01*
X99985715Y-68561905D01*
X99985715Y-68323810D01*
X99938096Y-68228571D01*
X99890477Y-68180952D01*
X99795239Y-68133333D01*
X99604762Y-68133333D01*
X99509524Y-68180952D01*
X99461905Y-68228571D01*
X99414286Y-68323810D01*
X67257143Y-79766666D02*
X67304762Y-79814285D01*
X67352381Y-79957142D01*
X67352381Y-80052380D01*
X67304762Y-80195238D01*
X67209524Y-80290476D01*
X67114286Y-80338095D01*
X66923810Y-80385714D01*
X66780952Y-80385714D01*
X66590476Y-80338095D01*
X66495238Y-80290476D01*
X66400000Y-80195238D01*
X66352381Y-80052380D01*
X66352381Y-79957142D01*
X66400000Y-79814285D01*
X66447619Y-79766666D01*
X66352381Y-79433333D02*
X66352381Y-78766666D01*
X67352381Y-79195238D01*
X60157143Y-87266666D02*
X60204762Y-87314285D01*
X60252381Y-87457142D01*
X60252381Y-87552380D01*
X60204762Y-87695238D01*
X60109524Y-87790476D01*
X60014286Y-87838095D01*
X59823810Y-87885714D01*
X59680952Y-87885714D01*
X59490476Y-87838095D01*
X59395238Y-87790476D01*
X59300000Y-87695238D01*
X59252381Y-87552380D01*
X59252381Y-87457142D01*
X59300000Y-87314285D01*
X59347619Y-87266666D01*
X59680952Y-86695238D02*
X59633333Y-86790476D01*
X59585714Y-86838095D01*
X59490476Y-86885714D01*
X59442857Y-86885714D01*
X59347619Y-86838095D01*
X59300000Y-86790476D01*
X59252381Y-86695238D01*
X59252381Y-86504761D01*
X59300000Y-86409523D01*
X59347619Y-86361904D01*
X59442857Y-86314285D01*
X59490476Y-86314285D01*
X59585714Y-86361904D01*
X59633333Y-86409523D01*
X59680952Y-86504761D01*
X59680952Y-86695238D01*
X59728571Y-86790476D01*
X59776190Y-86838095D01*
X59871429Y-86885714D01*
X60061905Y-86885714D01*
X60157143Y-86838095D01*
X60204762Y-86790476D01*
X60252381Y-86695238D01*
X60252381Y-86504761D01*
X60204762Y-86409523D01*
X60157143Y-86361904D01*
X60061905Y-86314285D01*
X59871429Y-86314285D01*
X59776190Y-86361904D01*
X59728571Y-86409523D01*
X59680952Y-86504761D01*
X75861905Y-55652381D02*
X75861905Y-54652381D01*
X76100000Y-54652381D01*
X76242858Y-54700000D01*
X76338096Y-54795238D01*
X76385715Y-54890476D01*
X76433334Y-55080952D01*
X76433334Y-55223810D01*
X76385715Y-55414286D01*
X76338096Y-55509524D01*
X76242858Y-55604762D01*
X76100000Y-55652381D01*
X75861905Y-55652381D01*
X77385715Y-55652381D02*
X76814286Y-55652381D01*
X77100000Y-55652381D02*
X77100000Y-54652381D01*
X77004762Y-54795238D01*
X76909524Y-54890476D01*
X76814286Y-54938095D01*
X69152381Y-62642857D02*
X68152381Y-62642857D01*
X68152381Y-62404762D01*
X68200000Y-62261904D01*
X68295238Y-62166666D01*
X68390476Y-62119047D01*
X68580952Y-62071428D01*
X68723810Y-62071428D01*
X68914286Y-62119047D01*
X69009524Y-62166666D01*
X69104762Y-62261904D01*
X69152381Y-62404762D01*
X69152381Y-62642857D01*
X69247619Y-61880952D02*
X69247619Y-61119047D01*
X69057143Y-60309523D02*
X69104762Y-60357142D01*
X69152381Y-60499999D01*
X69152381Y-60595237D01*
X69104762Y-60738095D01*
X69009524Y-60833333D01*
X68914286Y-60880952D01*
X68723810Y-60928571D01*
X68580952Y-60928571D01*
X68390476Y-60880952D01*
X68295238Y-60833333D01*
X68200000Y-60738095D01*
X68152381Y-60595237D01*
X68152381Y-60499999D01*
X68200000Y-60357142D01*
X68247619Y-60309523D01*
X69152381Y-59880952D02*
X68152381Y-59880952D01*
X68628571Y-59880952D02*
X68628571Y-59309523D01*
X69152381Y-59309523D02*
X68152381Y-59309523D01*
X69152381Y-58261904D02*
X68676190Y-58595238D01*
X69152381Y-58833333D02*
X68152381Y-58833333D01*
X68152381Y-58452380D01*
X68200000Y-58357142D01*
X68247619Y-58309523D01*
X68342857Y-58261904D01*
X68485714Y-58261904D01*
X68580952Y-58309523D01*
X68628571Y-58357142D01*
X68676190Y-58452380D01*
X68676190Y-58833333D01*
X68200000Y-57309523D02*
X68152381Y-57404761D01*
X68152381Y-57547618D01*
X68200000Y-57690476D01*
X68295238Y-57785714D01*
X68390476Y-57833333D01*
X68580952Y-57880952D01*
X68723810Y-57880952D01*
X68914286Y-57833333D01*
X69009524Y-57785714D01*
X69104762Y-57690476D01*
X69152381Y-57547618D01*
X69152381Y-57452380D01*
X69104762Y-57309523D01*
X69057143Y-57261904D01*
X68723810Y-57261904D01*
X68723810Y-57452380D01*
X69152381Y-56309523D02*
X69152381Y-56880952D01*
X69152381Y-56595238D02*
X68152381Y-56595238D01*
X68295238Y-56690476D01*
X68390476Y-56785714D01*
X68438095Y-56880952D01*
X84952381Y-88857143D02*
X83952381Y-88857143D01*
X83952381Y-88619048D01*
X84000000Y-88476190D01*
X84095238Y-88380952D01*
X84190476Y-88333333D01*
X84380952Y-88285714D01*
X84523810Y-88285714D01*
X84714286Y-88333333D01*
X84809524Y-88380952D01*
X84904762Y-88476190D01*
X84952381Y-88619048D01*
X84952381Y-88857143D01*
X85047619Y-88095238D02*
X85047619Y-87333333D01*
X84952381Y-87095238D02*
X83952381Y-87095238D01*
X83952381Y-86857143D01*
X84000000Y-86714285D01*
X84095238Y-86619047D01*
X84190476Y-86571428D01*
X84380952Y-86523809D01*
X84523810Y-86523809D01*
X84714286Y-86571428D01*
X84809524Y-86619047D01*
X84904762Y-86714285D01*
X84952381Y-86857143D01*
X84952381Y-87095238D01*
X84666667Y-86142857D02*
X84666667Y-85666666D01*
X84952381Y-86238095D02*
X83952381Y-85904762D01*
X84952381Y-85571428D01*
X83952381Y-85380952D02*
X83952381Y-84809523D01*
X84952381Y-85095238D02*
X83952381Y-85095238D01*
X84666667Y-84523809D02*
X84666667Y-84047618D01*
X84952381Y-84619047D02*
X83952381Y-84285714D01*
X84952381Y-83952380D01*
X84952381Y-83095237D02*
X84952381Y-83666666D01*
X84952381Y-83380952D02*
X83952381Y-83380952D01*
X84095238Y-83476190D01*
X84190476Y-83571428D01*
X84238095Y-83666666D01*
X70852381Y-88090476D02*
X69852381Y-88090476D01*
X69852381Y-87852381D01*
X69900000Y-87709523D01*
X69995238Y-87614285D01*
X70090476Y-87566666D01*
X70280952Y-87519047D01*
X70423810Y-87519047D01*
X70614286Y-87566666D01*
X70709524Y-87614285D01*
X70804762Y-87709523D01*
X70852381Y-87852381D01*
X70852381Y-88090476D01*
X70947619Y-87328571D02*
X70947619Y-86566666D01*
X70852381Y-86328571D02*
X69852381Y-86328571D01*
X69852381Y-85947618D01*
X69900000Y-85852380D01*
X69947619Y-85804761D01*
X70042857Y-85757142D01*
X70185714Y-85757142D01*
X70280952Y-85804761D01*
X70328571Y-85852380D01*
X70376190Y-85947618D01*
X70376190Y-86328571D01*
X69852381Y-85423809D02*
X70852381Y-85185714D01*
X70138095Y-84995237D01*
X70852381Y-84804761D01*
X69852381Y-84566666D01*
X70852381Y-83661904D02*
X70852381Y-84233333D01*
X70852381Y-83947619D02*
X69852381Y-83947619D01*
X69995238Y-84042857D01*
X70090476Y-84138095D01*
X70138095Y-84233333D01*
X82323810Y-64552381D02*
X82323810Y-63552381D01*
X83371429Y-64457143D02*
X83323810Y-64504762D01*
X83180953Y-64552381D01*
X83085715Y-64552381D01*
X82942857Y-64504762D01*
X82847619Y-64409524D01*
X82800000Y-64314286D01*
X82752381Y-64123810D01*
X82752381Y-63980952D01*
X82800000Y-63790476D01*
X82847619Y-63695238D01*
X82942857Y-63600000D01*
X83085715Y-63552381D01*
X83180953Y-63552381D01*
X83323810Y-63600000D01*
X83371429Y-63647619D01*
X84323810Y-64552381D02*
X83752381Y-64552381D01*
X84038095Y-64552381D02*
X84038095Y-63552381D01*
X83942857Y-63695238D01*
X83847619Y-63790476D01*
X83752381Y-63838095D01*
X62752381Y-86076190D02*
X61752381Y-86076190D01*
X62657143Y-85028571D02*
X62704762Y-85076190D01*
X62752381Y-85219047D01*
X62752381Y-85314285D01*
X62704762Y-85457143D01*
X62609524Y-85552381D01*
X62514286Y-85600000D01*
X62323810Y-85647619D01*
X62180952Y-85647619D01*
X61990476Y-85600000D01*
X61895238Y-85552381D01*
X61800000Y-85457143D01*
X61752381Y-85314285D01*
X61752381Y-85219047D01*
X61800000Y-85076190D01*
X61847619Y-85028571D01*
X61847619Y-84647619D02*
X61800000Y-84600000D01*
X61752381Y-84504762D01*
X61752381Y-84266666D01*
X61800000Y-84171428D01*
X61847619Y-84123809D01*
X61942857Y-84076190D01*
X62038095Y-84076190D01*
X62180952Y-84123809D01*
X62752381Y-84695238D01*
X62752381Y-84076190D01*
X101202381Y-65452381D02*
X100202381Y-65452381D01*
X101154762Y-65023810D02*
X101202381Y-64880953D01*
X101202381Y-64642857D01*
X101154762Y-64547619D01*
X101107143Y-64500000D01*
X101011905Y-64452381D01*
X100916667Y-64452381D01*
X100821429Y-64500000D01*
X100773810Y-64547619D01*
X100726190Y-64642857D01*
X100678571Y-64833334D01*
X100630952Y-64928572D01*
X100583333Y-64976191D01*
X100488095Y-65023810D01*
X100392857Y-65023810D01*
X100297619Y-64976191D01*
X100250000Y-64928572D01*
X100202381Y-64833334D01*
X100202381Y-64595238D01*
X100250000Y-64452381D01*
X101202381Y-64023810D02*
X100202381Y-64023810D01*
X100202381Y-63642857D01*
X100250000Y-63547619D01*
X100297619Y-63500000D01*
X100392857Y-63452381D01*
X100535714Y-63452381D01*
X100630952Y-63500000D01*
X100678571Y-63547619D01*
X100726190Y-63642857D01*
X100726190Y-64023810D01*
X101202381Y-62500000D02*
X101202381Y-63071429D01*
X101202381Y-62785715D02*
X100202381Y-62785715D01*
X100345238Y-62880953D01*
X100440476Y-62976191D01*
X100488095Y-63071429D01*
X80204762Y-78747619D02*
X80109524Y-78700000D01*
X80014286Y-78604762D01*
X79871429Y-78461905D01*
X79776190Y-78414286D01*
X79680952Y-78414286D01*
X79728571Y-78652381D02*
X79633333Y-78604762D01*
X79538095Y-78509524D01*
X79490476Y-78319048D01*
X79490476Y-77985714D01*
X79538095Y-77795238D01*
X79633333Y-77700000D01*
X79728571Y-77652381D01*
X79919048Y-77652381D01*
X80014286Y-77700000D01*
X80109524Y-77795238D01*
X80157143Y-77985714D01*
X80157143Y-78319048D01*
X80109524Y-78509524D01*
X80014286Y-78604762D01*
X79919048Y-78652381D01*
X79728571Y-78652381D01*
X81109524Y-78652381D02*
X80538095Y-78652381D01*
X80823809Y-78652381D02*
X80823809Y-77652381D01*
X80728571Y-77795238D01*
X80633333Y-77890476D01*
X80538095Y-77938095D01*
X73333334Y-55752381D02*
X73000000Y-55276190D01*
X72761905Y-55752381D02*
X72761905Y-54752381D01*
X73142858Y-54752381D01*
X73238096Y-54800000D01*
X73285715Y-54847619D01*
X73333334Y-54942857D01*
X73333334Y-55085714D01*
X73285715Y-55180952D01*
X73238096Y-55228571D01*
X73142858Y-55276190D01*
X72761905Y-55276190D01*
X74285715Y-55752381D02*
X73714286Y-55752381D01*
X74000000Y-55752381D02*
X74000000Y-54752381D01*
X73904762Y-54895238D01*
X73809524Y-54990476D01*
X73714286Y-55038095D01*
X64033334Y-60852381D02*
X63700000Y-60376190D01*
X63461905Y-60852381D02*
X63461905Y-59852381D01*
X63842858Y-59852381D01*
X63938096Y-59900000D01*
X63985715Y-59947619D01*
X64033334Y-60042857D01*
X64033334Y-60185714D01*
X63985715Y-60280952D01*
X63938096Y-60328571D01*
X63842858Y-60376190D01*
X63461905Y-60376190D01*
X64414286Y-59947619D02*
X64461905Y-59900000D01*
X64557143Y-59852381D01*
X64795239Y-59852381D01*
X64890477Y-59900000D01*
X64938096Y-59947619D01*
X64985715Y-60042857D01*
X64985715Y-60138095D01*
X64938096Y-60280952D01*
X64366667Y-60852381D01*
X64985715Y-60852381D01*
X60933334Y-60952381D02*
X60600000Y-60476190D01*
X60361905Y-60952381D02*
X60361905Y-59952381D01*
X60742858Y-59952381D01*
X60838096Y-60000000D01*
X60885715Y-60047619D01*
X60933334Y-60142857D01*
X60933334Y-60285714D01*
X60885715Y-60380952D01*
X60838096Y-60428571D01*
X60742858Y-60476190D01*
X60361905Y-60476190D01*
X61266667Y-59952381D02*
X61885715Y-59952381D01*
X61552381Y-60333333D01*
X61695239Y-60333333D01*
X61790477Y-60380952D01*
X61838096Y-60428571D01*
X61885715Y-60523810D01*
X61885715Y-60761905D01*
X61838096Y-60857143D01*
X61790477Y-60904762D01*
X61695239Y-60952381D01*
X61409524Y-60952381D01*
X61314286Y-60904762D01*
X61266667Y-60857143D01*
X83152381Y-80566666D02*
X82676190Y-80900000D01*
X83152381Y-81138095D02*
X82152381Y-81138095D01*
X82152381Y-80757142D01*
X82200000Y-80661904D01*
X82247619Y-80614285D01*
X82342857Y-80566666D01*
X82485714Y-80566666D01*
X82580952Y-80614285D01*
X82628571Y-80661904D01*
X82676190Y-80757142D01*
X82676190Y-81138095D01*
X82485714Y-79709523D02*
X83152381Y-79709523D01*
X82104762Y-79947619D02*
X82819048Y-80185714D01*
X82819048Y-79566666D01*
X66833334Y-60952381D02*
X66500000Y-60476190D01*
X66261905Y-60952381D02*
X66261905Y-59952381D01*
X66642858Y-59952381D01*
X66738096Y-60000000D01*
X66785715Y-60047619D01*
X66833334Y-60142857D01*
X66833334Y-60285714D01*
X66785715Y-60380952D01*
X66738096Y-60428571D01*
X66642858Y-60476190D01*
X66261905Y-60476190D01*
X67738096Y-59952381D02*
X67261905Y-59952381D01*
X67214286Y-60428571D01*
X67261905Y-60380952D01*
X67357143Y-60333333D01*
X67595239Y-60333333D01*
X67690477Y-60380952D01*
X67738096Y-60428571D01*
X67785715Y-60523810D01*
X67785715Y-60761905D01*
X67738096Y-60857143D01*
X67690477Y-60904762D01*
X67595239Y-60952381D01*
X67357143Y-60952381D01*
X67261905Y-60904762D01*
X67214286Y-60857143D01*
X83252381Y-77066666D02*
X82776190Y-77400000D01*
X83252381Y-77638095D02*
X82252381Y-77638095D01*
X82252381Y-77257142D01*
X82300000Y-77161904D01*
X82347619Y-77114285D01*
X82442857Y-77066666D01*
X82585714Y-77066666D01*
X82680952Y-77114285D01*
X82728571Y-77161904D01*
X82776190Y-77257142D01*
X82776190Y-77638095D01*
X82252381Y-76209523D02*
X82252381Y-76400000D01*
X82300000Y-76495238D01*
X82347619Y-76542857D01*
X82490476Y-76638095D01*
X82680952Y-76685714D01*
X83061905Y-76685714D01*
X83157143Y-76638095D01*
X83204762Y-76590476D01*
X83252381Y-76495238D01*
X83252381Y-76304761D01*
X83204762Y-76209523D01*
X83157143Y-76161904D01*
X83061905Y-76114285D01*
X82823810Y-76114285D01*
X82728571Y-76161904D01*
X82680952Y-76209523D01*
X82633333Y-76304761D01*
X82633333Y-76495238D01*
X82680952Y-76590476D01*
X82728571Y-76638095D01*
X82823810Y-76685714D01*
X83252381Y-75466666D02*
X82776190Y-75800000D01*
X83252381Y-76038095D02*
X82252381Y-76038095D01*
X82252381Y-75657142D01*
X82300000Y-75561904D01*
X82347619Y-75514285D01*
X82442857Y-75466666D01*
X82585714Y-75466666D01*
X82680952Y-75514285D01*
X82728571Y-75561904D01*
X82776190Y-75657142D01*
X82776190Y-76038095D01*
X82252381Y-75133333D02*
X82252381Y-74466666D01*
X83252381Y-74895238D01*
X76352381Y-86166666D02*
X75876190Y-86500000D01*
X76352381Y-86738095D02*
X75352381Y-86738095D01*
X75352381Y-86357142D01*
X75400000Y-86261904D01*
X75447619Y-86214285D01*
X75542857Y-86166666D01*
X75685714Y-86166666D01*
X75780952Y-86214285D01*
X75828571Y-86261904D01*
X75876190Y-86357142D01*
X75876190Y-86738095D01*
X75780952Y-85595238D02*
X75733333Y-85690476D01*
X75685714Y-85738095D01*
X75590476Y-85785714D01*
X75542857Y-85785714D01*
X75447619Y-85738095D01*
X75400000Y-85690476D01*
X75352381Y-85595238D01*
X75352381Y-85404761D01*
X75400000Y-85309523D01*
X75447619Y-85261904D01*
X75542857Y-85214285D01*
X75590476Y-85214285D01*
X75685714Y-85261904D01*
X75733333Y-85309523D01*
X75780952Y-85404761D01*
X75780952Y-85595238D01*
X75828571Y-85690476D01*
X75876190Y-85738095D01*
X75971429Y-85785714D01*
X76161905Y-85785714D01*
X76257143Y-85738095D01*
X76304762Y-85690476D01*
X76352381Y-85595238D01*
X76352381Y-85404761D01*
X76304762Y-85309523D01*
X76257143Y-85261904D01*
X76161905Y-85214285D01*
X75971429Y-85214285D01*
X75876190Y-85261904D01*
X75828571Y-85309523D01*
X75780952Y-85404761D01*
X99752381Y-84966666D02*
X99276190Y-85300000D01*
X99752381Y-85538095D02*
X98752381Y-85538095D01*
X98752381Y-85157142D01*
X98800000Y-85061904D01*
X98847619Y-85014285D01*
X98942857Y-84966666D01*
X99085714Y-84966666D01*
X99180952Y-85014285D01*
X99228571Y-85061904D01*
X99276190Y-85157142D01*
X99276190Y-85538095D01*
X99752381Y-84490476D02*
X99752381Y-84300000D01*
X99704762Y-84204761D01*
X99657143Y-84157142D01*
X99514286Y-84061904D01*
X99323810Y-84014285D01*
X98942857Y-84014285D01*
X98847619Y-84061904D01*
X98800000Y-84109523D01*
X98752381Y-84204761D01*
X98752381Y-84395238D01*
X98800000Y-84490476D01*
X98847619Y-84538095D01*
X98942857Y-84585714D01*
X99180952Y-84585714D01*
X99276190Y-84538095D01*
X99323810Y-84490476D01*
X99371429Y-84395238D01*
X99371429Y-84204761D01*
X99323810Y-84109523D01*
X99276190Y-84061904D01*
X99180952Y-84014285D01*
X94952381Y-85542857D02*
X94476190Y-85876191D01*
X94952381Y-86114286D02*
X93952381Y-86114286D01*
X93952381Y-85733333D01*
X94000000Y-85638095D01*
X94047619Y-85590476D01*
X94142857Y-85542857D01*
X94285714Y-85542857D01*
X94380952Y-85590476D01*
X94428571Y-85638095D01*
X94476190Y-85733333D01*
X94476190Y-86114286D01*
X94952381Y-84590476D02*
X94952381Y-85161905D01*
X94952381Y-84876191D02*
X93952381Y-84876191D01*
X94095238Y-84971429D01*
X94190476Y-85066667D01*
X94238095Y-85161905D01*
X93952381Y-83971429D02*
X93952381Y-83876190D01*
X94000000Y-83780952D01*
X94047619Y-83733333D01*
X94142857Y-83685714D01*
X94333333Y-83638095D01*
X94571429Y-83638095D01*
X94761905Y-83685714D01*
X94857143Y-83733333D01*
X94904762Y-83780952D01*
X94952381Y-83876190D01*
X94952381Y-83971429D01*
X94904762Y-84066667D01*
X94857143Y-84114286D01*
X94761905Y-84161905D01*
X94571429Y-84209524D01*
X94333333Y-84209524D01*
X94142857Y-84161905D01*
X94047619Y-84114286D01*
X94000000Y-84066667D01*
X93952381Y-83971429D01*
X73157143Y-80252381D02*
X72823809Y-79776190D01*
X72585714Y-80252381D02*
X72585714Y-79252381D01*
X72966667Y-79252381D01*
X73061905Y-79300000D01*
X73109524Y-79347619D01*
X73157143Y-79442857D01*
X73157143Y-79585714D01*
X73109524Y-79680952D01*
X73061905Y-79728571D01*
X72966667Y-79776190D01*
X72585714Y-79776190D01*
X74109524Y-80252381D02*
X73538095Y-80252381D01*
X73823809Y-80252381D02*
X73823809Y-79252381D01*
X73728571Y-79395238D01*
X73633333Y-79490476D01*
X73538095Y-79538095D01*
X75061905Y-80252381D02*
X74490476Y-80252381D01*
X74776190Y-80252381D02*
X74776190Y-79252381D01*
X74680952Y-79395238D01*
X74585714Y-79490476D01*
X74490476Y-79538095D01*
X85066667Y-55504762D02*
X85209524Y-55552381D01*
X85447620Y-55552381D01*
X85542858Y-55504762D01*
X85590477Y-55457143D01*
X85638096Y-55361905D01*
X85638096Y-55266667D01*
X85590477Y-55171429D01*
X85542858Y-55123810D01*
X85447620Y-55076190D01*
X85257143Y-55028571D01*
X85161905Y-54980952D01*
X85114286Y-54933333D01*
X85066667Y-54838095D01*
X85066667Y-54742857D01*
X85114286Y-54647619D01*
X85161905Y-54600000D01*
X85257143Y-54552381D01*
X85495239Y-54552381D01*
X85638096Y-54600000D01*
X85971429Y-54552381D02*
X86209524Y-55552381D01*
X86400001Y-54838095D01*
X86590477Y-55552381D01*
X86828572Y-54552381D01*
X87733334Y-55552381D02*
X87161905Y-55552381D01*
X87447619Y-55552381D02*
X87447619Y-54552381D01*
X87352381Y-54695238D01*
X87257143Y-54790476D01*
X87161905Y-54838095D01*
X97104762Y-57233333D02*
X97152381Y-57090476D01*
X97152381Y-56852380D01*
X97104762Y-56757142D01*
X97057143Y-56709523D01*
X96961905Y-56661904D01*
X96866667Y-56661904D01*
X96771429Y-56709523D01*
X96723810Y-56757142D01*
X96676190Y-56852380D01*
X96628571Y-57042857D01*
X96580952Y-57138095D01*
X96533333Y-57185714D01*
X96438095Y-57233333D01*
X96342857Y-57233333D01*
X96247619Y-57185714D01*
X96200000Y-57138095D01*
X96152381Y-57042857D01*
X96152381Y-56804761D01*
X96200000Y-56661904D01*
X96152381Y-56328571D02*
X97152381Y-56090476D01*
X96438095Y-55899999D01*
X97152381Y-55709523D01*
X96152381Y-55471428D01*
X96247619Y-55138095D02*
X96200000Y-55090476D01*
X96152381Y-54995238D01*
X96152381Y-54757142D01*
X96200000Y-54661904D01*
X96247619Y-54614285D01*
X96342857Y-54566666D01*
X96438095Y-54566666D01*
X96580952Y-54614285D01*
X97152381Y-55185714D01*
X97152381Y-54566666D01*
X55552381Y-69261905D02*
X56361905Y-69261905D01*
X56457143Y-69214286D01*
X56504762Y-69166667D01*
X56552381Y-69071429D01*
X56552381Y-68880952D01*
X56504762Y-68785714D01*
X56457143Y-68738095D01*
X56361905Y-68690476D01*
X55552381Y-68690476D01*
X56552381Y-67690476D02*
X56552381Y-68261905D01*
X56552381Y-67976191D02*
X55552381Y-67976191D01*
X55695238Y-68071429D01*
X55790476Y-68166667D01*
X55838095Y-68261905D01*
X98138095Y-74352381D02*
X98138095Y-75161905D01*
X98185714Y-75257143D01*
X98233333Y-75304762D01*
X98328571Y-75352381D01*
X98519048Y-75352381D01*
X98614286Y-75304762D01*
X98661905Y-75257143D01*
X98709524Y-75161905D01*
X98709524Y-74352381D01*
X99138095Y-74447619D02*
X99185714Y-74400000D01*
X99280952Y-74352381D01*
X99519048Y-74352381D01*
X99614286Y-74400000D01*
X99661905Y-74447619D01*
X99709524Y-74542857D01*
X99709524Y-74638095D01*
X99661905Y-74780952D01*
X99090476Y-75352381D01*
X99709524Y-75352381D01*
X103952381Y-88133333D02*
X102952381Y-88133333D01*
X102952381Y-87895238D01*
X103000000Y-87752380D01*
X103095238Y-87657142D01*
X103190476Y-87609523D01*
X103380952Y-87561904D01*
X103523810Y-87561904D01*
X103714286Y-87609523D01*
X103809524Y-87657142D01*
X103904762Y-87752380D01*
X103952381Y-87895238D01*
X103952381Y-88133333D01*
X104047619Y-87371428D02*
X104047619Y-86609523D01*
X103904762Y-86419047D02*
X103952381Y-86276190D01*
X103952381Y-86038094D01*
X103904762Y-85942856D01*
X103857143Y-85895237D01*
X103761905Y-85847618D01*
X103666667Y-85847618D01*
X103571429Y-85895237D01*
X103523810Y-85942856D01*
X103476190Y-86038094D01*
X103428571Y-86228571D01*
X103380952Y-86323809D01*
X103333333Y-86371428D01*
X103238095Y-86419047D01*
X103142857Y-86419047D01*
X103047619Y-86371428D01*
X103000000Y-86323809D01*
X102952381Y-86228571D01*
X102952381Y-85990475D01*
X103000000Y-85847618D01*
X103952381Y-85419047D02*
X102952381Y-85419047D01*
X103000000Y-84419047D02*
X102952381Y-84514285D01*
X102952381Y-84657142D01*
X103000000Y-84800000D01*
X103095238Y-84895238D01*
X103190476Y-84942857D01*
X103380952Y-84990476D01*
X103523810Y-84990476D01*
X103714286Y-84942857D01*
X103809524Y-84895238D01*
X103904762Y-84800000D01*
X103952381Y-84657142D01*
X103952381Y-84561904D01*
X103904762Y-84419047D01*
X103857143Y-84371428D01*
X103523810Y-84371428D01*
X103523810Y-84561904D01*
X103952381Y-83419047D02*
X103952381Y-83990476D01*
X103952381Y-83704762D02*
X102952381Y-83704762D01*
X103095238Y-83800000D01*
X103190476Y-83895238D01*
X103238095Y-83990476D01*
X71452381Y-71738095D02*
X70452381Y-71738095D01*
X70452381Y-71357142D01*
X70500000Y-71261904D01*
X70547619Y-71214285D01*
X70642857Y-71166666D01*
X70785714Y-71166666D01*
X70880952Y-71214285D01*
X70928571Y-71261904D01*
X70976190Y-71357142D01*
X70976190Y-71738095D01*
X70547619Y-70785714D02*
X70500000Y-70738095D01*
X70452381Y-70642857D01*
X70452381Y-70404761D01*
X70500000Y-70309523D01*
X70547619Y-70261904D01*
X70642857Y-70214285D01*
X70738095Y-70214285D01*
X70880952Y-70261904D01*
X71452381Y-70833333D01*
X71452381Y-70214285D01*
X69285714Y-74219048D02*
X69323810Y-74257143D01*
X69361905Y-74371429D01*
X69361905Y-74447619D01*
X69323810Y-74561905D01*
X69247619Y-74638096D01*
X69171429Y-74676191D01*
X69019048Y-74714286D01*
X68904762Y-74714286D01*
X68752381Y-74676191D01*
X68676190Y-74638096D01*
X68600000Y-74561905D01*
X68561905Y-74447619D01*
X68561905Y-74371429D01*
X68600000Y-74257143D01*
X68638095Y-74219048D01*
X68561905Y-73723810D02*
X68561905Y-73571429D01*
X68600000Y-73495238D01*
X68676190Y-73419048D01*
X68828571Y-73380953D01*
X69095238Y-73380953D01*
X69247619Y-73419048D01*
X69323810Y-73495238D01*
X69361905Y-73571429D01*
X69361905Y-73723810D01*
X69323810Y-73800000D01*
X69247619Y-73876191D01*
X69095238Y-73914286D01*
X68828571Y-73914286D01*
X68676190Y-73876191D01*
X68600000Y-73800000D01*
X68561905Y-73723810D01*
X69361905Y-73038096D02*
X68561905Y-73038096D01*
X69361905Y-72580953D01*
X68561905Y-72580953D01*
X69361905Y-72200001D02*
X68561905Y-72200001D01*
X69361905Y-71742858D01*
X68561905Y-71742858D01*
X69438095Y-71552382D02*
X69438095Y-70942858D01*
X68561905Y-70600001D02*
X68561905Y-70523810D01*
X68600000Y-70447620D01*
X68638095Y-70409525D01*
X68714286Y-70371429D01*
X68866667Y-70333334D01*
X69057143Y-70333334D01*
X69209524Y-70371429D01*
X69285714Y-70409525D01*
X69323810Y-70447620D01*
X69361905Y-70523810D01*
X69361905Y-70600001D01*
X69323810Y-70676191D01*
X69285714Y-70714287D01*
X69209524Y-70752382D01*
X69057143Y-70790477D01*
X68866667Y-70790477D01*
X68714286Y-70752382D01*
X68638095Y-70714287D01*
X68600000Y-70676191D01*
X68561905Y-70600001D01*
X69361905Y-69571429D02*
X69361905Y-70028572D01*
X69361905Y-69800001D02*
X68561905Y-69800001D01*
X68676190Y-69876191D01*
X68752381Y-69952382D01*
X68790476Y-70028572D01*
X68561905Y-69304762D02*
X69361905Y-68771429D01*
X68561905Y-68771429D02*
X69361905Y-69304762D01*
X68561905Y-68314286D02*
X68561905Y-68238095D01*
X68600000Y-68161905D01*
X68638095Y-68123810D01*
X68714286Y-68085714D01*
X68866667Y-68047619D01*
X69057143Y-68047619D01*
X69209524Y-68085714D01*
X69285714Y-68123810D01*
X69323810Y-68161905D01*
X69361905Y-68238095D01*
X69361905Y-68314286D01*
X69323810Y-68390476D01*
X69285714Y-68428572D01*
X69209524Y-68466667D01*
X69057143Y-68504762D01*
X68866667Y-68504762D01*
X68714286Y-68466667D01*
X68638095Y-68428572D01*
X68600000Y-68390476D01*
X68561905Y-68314286D01*
X68561905Y-67780952D02*
X68561905Y-67247619D01*
X69361905Y-67590476D01*
X85761905Y-71952381D02*
X85761905Y-70952381D01*
X86142858Y-70952381D01*
X86238096Y-71000000D01*
X86285715Y-71047619D01*
X86333334Y-71142857D01*
X86333334Y-71285714D01*
X86285715Y-71380952D01*
X86238096Y-71428571D01*
X86142858Y-71476190D01*
X85761905Y-71476190D01*
X86666667Y-70952381D02*
X87285715Y-70952381D01*
X86952381Y-71333333D01*
X87095239Y-71333333D01*
X87190477Y-71380952D01*
X87238096Y-71428571D01*
X87285715Y-71523810D01*
X87285715Y-71761905D01*
X87238096Y-71857143D01*
X87190477Y-71904762D01*
X87095239Y-71952381D01*
X86809524Y-71952381D01*
X86714286Y-71904762D01*
X86666667Y-71857143D01*
X88761905Y-75952381D02*
X88761905Y-74952381D01*
X89142858Y-74952381D01*
X89238096Y-75000000D01*
X89285715Y-75047619D01*
X89333334Y-75142857D01*
X89333334Y-75285714D01*
X89285715Y-75380952D01*
X89238096Y-75428571D01*
X89142858Y-75476190D01*
X88761905Y-75476190D01*
X90190477Y-75285714D02*
X90190477Y-75952381D01*
X89952381Y-74904762D02*
X89714286Y-75619048D01*
X90333334Y-75619048D01*
%LPC*%
D17*
X60500000Y-78300000D03*
X58300000Y-78300000D03*
D18*
X61575000Y-55750000D03*
X67225000Y-55750000D03*
D19*
X62400000Y-57900000D03*
X66400000Y-57900000D03*
D20*
X64400000Y-58400000D03*
X63750000Y-58400000D03*
X65050000Y-58400000D03*
X63100000Y-58400000D03*
X65700000Y-58400000D03*
D21*
X80300000Y-57900000D03*
X80300000Y-59900000D03*
D22*
X88000000Y-64650000D03*
X88000000Y-67350000D03*
D23*
X79100000Y-65500000D03*
X79100000Y-67700000D03*
X91400000Y-87200000D03*
X91400000Y-85000000D03*
D17*
X59700000Y-74100000D03*
X57500000Y-74100000D03*
D24*
X71650000Y-64000000D03*
X74350000Y-64000000D03*
D23*
X99200000Y-64400000D03*
X99200000Y-66600000D03*
X65300000Y-80800000D03*
X65300000Y-83000000D03*
D17*
X61400000Y-87000000D03*
X63600000Y-87000000D03*
D25*
X76500000Y-60135000D03*
X76500000Y-56865000D03*
D26*
X70200000Y-60500000D03*
X70200000Y-57500000D03*
D27*
X70200000Y-59000000D03*
D26*
X86100000Y-87700000D03*
X86100000Y-84700000D03*
D27*
X86100000Y-86200000D03*
D26*
X72000000Y-87600000D03*
X72000000Y-84600000D03*
D27*
X72000000Y-86100000D03*
D28*
X82250000Y-67800000D03*
X83200000Y-67800000D03*
X84150000Y-67800000D03*
X84150000Y-65600000D03*
X82250000Y-65600000D03*
X83200000Y-65600000D03*
D29*
X59000000Y-84650000D03*
X59500000Y-84650000D03*
X60000000Y-84650000D03*
X60500000Y-84650000D03*
X61000000Y-84650000D03*
D30*
X61650000Y-83500000D03*
X61650000Y-83000000D03*
X61650000Y-82500000D03*
D29*
X61000000Y-81350000D03*
X60500000Y-81350000D03*
X60000000Y-81350000D03*
X59500000Y-81350000D03*
X59000000Y-81350000D03*
D30*
X58350000Y-82500000D03*
X58350000Y-83000000D03*
X58350000Y-83500000D03*
D31*
X105750000Y-65000000D03*
D32*
X103210000Y-65000000D03*
X105750000Y-62460000D03*
X103210000Y-62460000D03*
X105750000Y-59920000D03*
X103210000Y-59920000D03*
D33*
X76998860Y-76050000D03*
X76998860Y-77950000D03*
X80001140Y-77000000D03*
D23*
X73400000Y-57100000D03*
X73400000Y-59300000D03*
X64200000Y-62000000D03*
X64200000Y-64200000D03*
X61100000Y-62000000D03*
X61100000Y-64200000D03*
D17*
X86400000Y-80400000D03*
X84200000Y-80400000D03*
D23*
X67000000Y-62000000D03*
X67000000Y-64200000D03*
D17*
X84400000Y-77000000D03*
X86600000Y-77000000D03*
X84400000Y-75500000D03*
X86600000Y-75500000D03*
D23*
X77300000Y-87200000D03*
X77300000Y-85000000D03*
X100700000Y-87300000D03*
X100700000Y-85100000D03*
X96000000Y-87100000D03*
X96000000Y-84900000D03*
D17*
X72700000Y-81200000D03*
X74900000Y-81200000D03*
D34*
X89900000Y-54500000D03*
X89900000Y-56700000D03*
X82900000Y-54500000D03*
X82900000Y-56700000D03*
D35*
X88600000Y-57600000D03*
X85700000Y-57600000D03*
X84200000Y-57600000D03*
D36*
X84950000Y-55600000D03*
X87850000Y-55600000D03*
D37*
X98700000Y-56500000D03*
X102650000Y-55000000D03*
D38*
X99550000Y-55000000D03*
X101250000Y-55000000D03*
D37*
X98150000Y-55000000D03*
X102100000Y-56500000D03*
D39*
X57500000Y-68050000D03*
X57500000Y-69000000D03*
X57500000Y-69950000D03*
X59700000Y-69950000D03*
X59700000Y-68050000D03*
D40*
X102600000Y-69300000D03*
X101800000Y-69300000D03*
X101000000Y-69300000D03*
X100200000Y-69300000D03*
X99400000Y-69300000D03*
X98600000Y-69300000D03*
X97800000Y-69300000D03*
X97000000Y-69300000D03*
X96200000Y-69300000D03*
X95400000Y-69300000D03*
X94600000Y-69300000D03*
D41*
X92900000Y-71000000D03*
X92900000Y-71800000D03*
X92900000Y-72600000D03*
X92900000Y-73400000D03*
X92900000Y-74200000D03*
X92900000Y-75000000D03*
X92900000Y-75800000D03*
X92900000Y-76600000D03*
X92900000Y-77400000D03*
X92900000Y-78200000D03*
X92900000Y-79000000D03*
D40*
X94600000Y-80700000D03*
X95400000Y-80700000D03*
X96200000Y-80700000D03*
X97000000Y-80700000D03*
X97800000Y-80700000D03*
X98600000Y-80700000D03*
X99400000Y-80700000D03*
X100200000Y-80700000D03*
X101000000Y-80700000D03*
X101800000Y-80700000D03*
X102600000Y-80700000D03*
D41*
X104300000Y-79000000D03*
X104300000Y-78200000D03*
X104300000Y-77400000D03*
X104300000Y-76600000D03*
X104300000Y-75800000D03*
X104300000Y-75000000D03*
X104300000Y-74200000D03*
X104300000Y-73400000D03*
X104300000Y-72600000D03*
X104300000Y-71800000D03*
X104300000Y-71000000D03*
D26*
X105100000Y-87500000D03*
X105100000Y-84500000D03*
D27*
X105100000Y-86000000D03*
D42*
X74400000Y-69300000D03*
X74400000Y-69800000D03*
X74400000Y-70300000D03*
X74400000Y-70800000D03*
X74400000Y-71300000D03*
X74400000Y-71800000D03*
X74400000Y-72300000D03*
X74400000Y-72800000D03*
D43*
X72300000Y-67300000D03*
X72300000Y-74800000D03*
D44*
X71600000Y-67800000D03*
X71600000Y-74300000D03*
D45*
X86500000Y-73500000D03*
X89500000Y-77500000D03*
M02*
