M48
;DRILL file {KiCad 4.0.2-stable} date 2016 October 13, Thursday 23:15:59
;FORMAT={-:-/ absolute / metric / decimal}
FMAT,2
METRIC,TZ
T1C0.400
T2C0.762
T3C1.016
%
G90
G05
M71
T1
X57.5Y-72.25
X57.5Y-75.75
X57.988Y-84.501
X58.262Y-81.017
X61.43Y-68.291
X63.055Y-82.419
X63.74Y-83.75
X64.285Y-72.948
X67.94Y-84.125
X69.325Y-68.379
X69.751Y-63.667
X73.524Y-65.725
X76.131Y-79.08
X76.415Y-70.143
X78.072Y-70.653
X78.514Y-60.577
X79.142Y-71.296
X80.934Y-67.947
X83.283Y-77.
X84.653Y-81.503
X84.834Y-87.7
X87.962Y-75.
X88.497Y-74.177
X94.152Y-79.177
X94.483Y-81.963
X95.146Y-71.441
X95.572Y-83.713
X96.084Y-75.397
X96.12Y-68.044
X96.123Y-71.514
X96.2Y-73.328
X96.834Y-67.202
X97.Y-68.031
X98.007Y-68.028
X98.047Y-64.238
X98.232Y-66.564
X98.833Y-79.44
X99.875Y-79.43
X100.962Y-56.192
X101.53Y-67.856
T2
X80.3Y-57.9
X80.3Y-59.9
T3
X103.21Y-59.92
X103.21Y-62.46
X103.21Y-65.
X105.75Y-59.92
X105.75Y-62.46
X105.75Y-65.
T0
M30
